<?xml version="1.0" encoding="UTF-8"?>
<svg width="176px" height="239px" viewBox="0 0 176 239" version="1.1" xmlns="http://www.w3.org/2000/svg" xmlns:xlink="http://www.w3.org/1999/xlink">
    <!-- Generator: sketchtool 58 (101010) - https://sketch.com -->
    <title>BCDDDCFB-9A91-43EA-A84B-B6AB8FB7C80C</title>
    <desc>Created with sketchtool.</desc>
    <defs>
        <rect id="path-1" x="0" y="2.84217094e-14" width="176" height="239" rx="12"></rect>
        <polygon id="path-3" points="0.0303210398 0.334158356 67.9484688 0.334158356 67.9484688 128.64039 0.0303210398 128.64039"></polygon>
        <polygon id="path-5" points="0 0.164724674 67.9181877 0.164724674 67.9181877 128 0 128"></polygon>
    </defs>
    <g id="Page-1" stroke="none" stroke-width="1" fill="none" fill-rule="evenodd">
        <g id="0.0-i---Search-Empty" transform="translate(-218.000000, -300.000000)">
            <g id="Bitmap" transform="translate(218.000000, 300.000000)">
                <g id="No-bread-image">
                    <mask id="mask-2" fill="white">
                        <use xlink:href="#path-1"></use>
                    </mask>
                    <use id="Mask" fill="#CDCDCD" xlink:href="#path-1"></use>
                    <g id="Group-5" mask="url(#mask-2)">
                        <g transform="translate(-9.000000, 17.000000)">
                            <g id="Group-7" stroke-width="1" fill="none" transform="translate(20.000000, 21.000000)">
                                <g id="Group-3" transform="translate(86.000000, 0.000000)">
                                    <mask id="mask-4" fill="white">
                                        <use xlink:href="#path-3"></use>
                                    </mask>
                                    <g id="Clip-2"></g>
                                    <path d="M59.788575,54.3668385 C59.631325,54.3451623 59.4746062,54.3224287 59.3184187,54.2959943 C59.36995,54.2574 59.4177625,54.2124615 59.4623875,54.1574779 C59.563325,54.0332361 59.6366375,53.9052934 59.690825,53.7731213 C59.7025125,53.829691 59.7142,53.8883754 59.7274812,53.9481172 C59.7567,54.079232 59.788575,54.2103467 59.8167313,54.3414615 C59.8071688,54.3499205 59.797075,54.3578508 59.788575,54.3668385 M56.1006375,51.2898713 C55.9938562,51.3115475 55.9051375,51.3808057 55.848825,51.4675107 C55.700075,51.2639656 55.555575,51.0551336 55.3807937,50.8875393 C55.3632625,50.8716787 55.3467937,50.8579328 55.3287312,50.8431295 C55.3446687,50.8404861 55.3606062,50.8378426 55.3754812,50.8362566 C55.7840125,50.789732 56.159075,50.8040066 56.5617625,50.8928262 C56.5729187,50.894941 56.584075,50.8981131 56.5947,50.9007566 C56.388575,50.9504533 56.2026375,51.1011295 56.1006375,51.2898713 M54.1392625,50.725232 C54.0632937,50.6686623 53.9867937,50.6115639 53.9113562,50.5528795 C53.7381687,50.4175352 53.5378875,50.5243303 53.5102625,50.6850516 C53.3747937,50.5771992 53.2430437,50.4656459 53.1171375,50.3429902 C53.0592312,50.2858918 53.0029187,50.22615 52.9476687,50.1658795 C53.0427625,50.1981295 53.1362625,50.2293221 53.2302937,50.2605148 C53.5740125,50.3747115 53.9140125,50.4656459 54.2598562,50.5370189 C54.2093875,50.596232 54.1706062,50.6591459 54.1392625,50.725232 M53.0879187,42.8102361 C53.0326687,42.864691 52.9763562,42.9180885 52.9211062,42.9730721 C52.6368875,42.8689205 52.3447,42.7975475 52.0487937,42.7674123 C52.0057625,42.7399205 51.9648562,42.7124287 51.9244812,42.6822934 C52.1337937,42.6939246 52.3436375,42.7071418 52.55295,42.718773 C52.754825,42.7304041 52.9476687,42.7425639 53.1320125,42.7658262 C53.1166062,42.7806295 53.1017312,42.7954328 53.0879187,42.8102361 M49.7272312,42.8879533 C49.8000125,42.8266254 49.8967,42.7853877 50.005075,42.7563098 C50.0210125,42.9016992 50.0837,43.0460311 50.2080125,43.1655148 C50.2526375,43.2115107 50.30045,43.2564492 50.3487937,43.3029738 C50.1362937,43.1723877 49.928575,43.0344 49.7272312,42.8879533 M48.1101062,29.482527 C48.1531375,29.4566213 48.1913875,29.4259574 48.2291062,29.39265 C48.2407937,29.4851705 48.2588562,29.5771623 48.2832937,29.6670393 C48.2248562,29.6051828 48.1680125,29.5438549 48.1101062,29.482527 M47.7068875,30.9046992 C47.7520437,30.8518303 47.7940125,30.7973754 47.8349187,30.740277 C47.9262937,30.8391418 48.016075,30.9390639 48.1069187,31.0384574 C47.9804812,30.9855885 47.8482,30.9469943 47.7068875,30.9046992 M41.4551375,18.9621541 C41.4142312,18.6803631 41.3770437,18.3948713 41.3441062,18.1025066 C41.3292312,17.8772852 41.2171375,17.7287238 41.0726375,17.6515352 C41.0896375,17.572232 41.105575,17.4929287 41.1215125,17.4136254 C41.2336062,17.6779697 41.3483562,17.9412566 41.46895,18.2019 C41.5741375,18.4302934 41.6607312,18.6756049 41.7319187,18.9277893 C41.63895,18.9219738 41.543325,18.9341336 41.4551375,18.9621541 M41.0848562,25.3941787 C41.0253562,25.4914574 41.0264187,25.6119984 41.0667937,25.7187934 C40.9892312,25.7510434 40.9111375,25.7817074 40.8319812,25.8091992 C40.7034187,25.8557238 40.5737937,25.8990762 40.4447,25.9403139 C40.6184187,25.731482 40.7522937,25.475068 40.8330437,25.1567975 C40.8415437,25.1245475 40.8452625,25.0917689 40.8489812,25.0595189 C40.8952,25.0685066 40.9414187,25.0769656 40.986575,25.086482 C41.0561687,25.1007566 41.1236375,25.1197893 41.1916375,25.1409369 C41.1645437,25.2249984 41.1401062,25.3027156 41.0848562,25.3941787 M40.9547,22.5122975 C40.9748875,22.6238508 40.9887,22.7369902 40.9924187,22.8522443 C40.9042312,22.7835148 40.816575,22.7147852 40.7289187,22.6460557 C40.8064812,22.62015 40.8819187,22.5757402 40.9547,22.5122975 M37.1541375,25.4068672 C37.123325,25.483527 37.106325,25.5559574 37.1015437,25.6273303 C36.9118875,25.6215148 36.7392312,25.6172852 36.600575,25.6225721 C36.600575,25.6246869 36.6011062,25.627859 36.6011062,25.6305025 C36.1777,25.6384328 35.9853875,26.0560967 36.0879187,26.3770107 C35.8063562,26.3315434 35.5290437,26.271273 35.2597,26.191441 C35.4137625,26.1306418 35.559325,26.0486951 35.695325,25.9477156 C35.8860437,25.806027 35.967325,25.7304246 36.196825,25.6632811 C36.5214187,25.5675885 36.84495,25.4718959 37.16795,25.3762033 C37.1642312,25.3862484 37.1589187,25.3957648 37.1541375,25.4068672 M36.9172,17.5526705 C36.9883875,17.4051664 37.0436375,17.249732 37.0856062,17.0874246 C37.0925125,17.2756377 37.0946375,17.4638508 37.0967625,17.6520639 C37.0606375,17.6631664 37.0239812,17.6769123 36.9905125,17.6938303 C36.9852,17.6816705 36.9798875,17.668982 36.9740437,17.6573508 C36.9591687,17.6245721 36.9395125,17.5896787 36.9172,17.5526705 M36.1899187,19.2909984 C36.2467625,19.2772525 36.2982937,19.2566336 36.3471687,19.2344287 C36.3466375,19.2555762 36.3471687,19.2777811 36.345575,19.2994574 C36.3445125,19.3385803 36.3487625,19.3745311 36.3535437,19.4099533 C36.298825,19.369773 36.2441062,19.33065 36.1899187,19.2909984 M36.022575,14.0279041 C36.0448875,13.9507156 36.0804812,13.8862156 36.1362625,13.8460352 C36.137325,13.8455066 36.1378562,13.8444492 36.1405125,13.8428631 C36.1410437,13.8492074 36.1431687,13.8560803 36.1437,13.8629533 C36.1723875,14.0030557 36.19045,14.1458016 36.2069187,14.2874902 C36.2021375,14.357277 36.1941687,14.4275926 36.1899187,14.4968508 C36.1532625,14.3287279 36.1001375,14.1695926 36.022575,14.0279041 M30.9066375,15.5621582 C30.8816687,15.5462975 30.8572312,15.5304369 30.8327937,15.5145762 C30.8466062,15.4939574 30.8620125,15.4733385 30.8752937,15.4527197 C30.9358562,15.4516623 30.9831375,15.4569492 31.02245,15.4669943 C30.9831375,15.4981869 30.94595,15.5299082 30.9066375,15.5621582 M29.1662625,17.3353795 C28.6929187,17.597609 28.168575,17.6784984 27.6298875,17.7149779 C27.543825,17.7218508 27.4567,17.7239656 27.3701062,17.7255516 C27.4710437,17.5357525 27.6049187,17.3655148 27.7579187,17.2100803 C27.8477,17.3448959 27.99645,17.4395311 28.1792,17.4289574 C28.6243875,17.404109 29.0074188,17.2391582 29.354325,17.0065352 C29.426575,16.9975475 29.4977625,16.9859164 29.5700125,16.9732279 C29.5997625,17.00865 29.630575,17.0409 29.668825,17.0689205 C29.4998875,17.1556254 29.3325438,17.2433877 29.1662625,17.3353795 M25.7593562,11.9263672 C25.7142,11.9231951 25.6679812,11.9247811 25.62495,11.9316541 C25.6669187,11.84865 25.7072937,11.7630025 25.7407625,11.6747115 C25.7551062,11.639818 25.7625437,11.6049246 25.7662625,11.5705598 C25.88845,11.6091541 25.9830125,11.6710107 26.0595125,11.7492566 C25.9575125,11.8047689 25.8581687,11.8634533 25.7593562,11.9263672 M22.8204812,13.7043467 C22.7939187,13.7043467 22.76895,13.703818 22.74345,13.703818 C22.5559187,13.7017033 22.3689187,13.7001172 22.1813875,13.6980025 C22.1856375,13.6943016 22.188825,13.6906008 22.193075,13.6874287 C22.2169812,13.6874287 22.24195,13.6847852 22.26745,13.6805557 C22.3976063,13.6594082 22.490575,13.613941 22.596825,13.5362238 C22.6324187,13.5092607 22.6595125,13.4791254 22.6802312,13.4463467 C22.7886062,13.3839615 22.8980437,13.3221049 23.00695,13.260777 C22.9235437,13.39665 22.8587312,13.5436254 22.8204812,13.7043467 M14.0665437,5.01165 C14.0251062,4.95085082 13.9852625,4.89058033 13.9443562,4.83030984 C14.0957625,4.94873607 14.2466375,5.07033443 14.3916687,5.19669098 C14.2811687,5.13747787 14.1727937,5.07562131 14.0665437,5.01165 M52.2761687,30.8142934 C52.30645,31.399023 52.3372625,31.9848098 52.3664812,32.5695393 C52.3277,32.536232 52.2889187,32.5029246 52.2512,32.4701459 C52.2246375,32.4474123 52.2076375,32.4341951 52.1948875,32.4262648 C52.1986062,32.4082893 52.1970125,32.3728672 52.1847937,32.3083672 C52.0907625,31.8330762 52.1741687,31.3054451 52.2761687,30.8142934 M57.8691687,38.0108016 C57.8771375,37.7099779 57.9063562,37.4303016 57.9541687,37.1617279 C57.9562937,37.2093098 57.95895,37.2579492 57.961075,37.3060598 C57.9520437,37.5191213 57.9477937,37.7321828 57.9414187,37.9463016 C57.9031687,38.0002279 57.8792625,38.0694861 57.8771375,38.1540762 C57.87395,38.3724246 57.8681062,38.607691 57.8643875,38.8519451 C57.8606687,38.5706828 57.8622625,38.2899492 57.8691687,38.0108016 M63.3665437,43.6043262 C63.3787625,43.567318 63.3909812,43.5303098 63.4021375,43.494359 C63.4919187,43.9268262 63.56045,44.3624656 63.6172938,44.8007484 C63.5418562,44.7193303 63.435075,44.6669902 63.3298875,44.6717484 C63.311825,44.3138262 63.324575,43.9569615 63.3665437,43.6043262 M63.7384187,45.8697566 C63.660325,45.7872811 63.5593875,45.728068 63.4515437,45.7053344 C63.4441062,45.6614533 63.4377312,45.6165148 63.4313562,45.5721049 C63.5147625,45.4594943 63.5949812,45.3447689 63.6682937,45.2231705 C63.6937937,45.4383467 63.7161062,45.6540516 63.7384187,45.8697566 M67.9310437,84.1394041 C67.8625125,81.3273098 67.6112312,78.5035844 67.158075,75.7258549 C67.0656375,75.1696746 66.9657625,74.614023 66.856325,74.0604861 C66.809575,73.6359492 66.7575125,73.2108836 66.6937625,72.7847607 C66.461075,71.229359 66.1943875,69.681359 65.8676687,68.141818 C65.2206062,65.0770107 64.2521375,62.0909779 63.3532625,59.0927852 C62.7332937,57.0250844 62.100575,54.9616131 61.4317312,52.9092443 C61.8907312,53.2719246 62.5037937,53.3755475 62.8963875,52.7786582 C63.1614812,52.378441 63.2193875,51.8534533 63.2082312,51.3559574 C63.6194187,50.4402689 63.4451687,49.4970885 63.3707937,48.4978672 C63.3617625,48.3778549 63.3442312,48.2002156 63.3341375,48.0030148 C63.5227312,48.0088303 63.7102625,47.929527 63.8282,47.7888959 C63.8308562,48.3249861 63.8202312,48.8610762 63.8127937,49.3955803 C63.7968562,50.4259943 63.6916687,51.4537648 63.3410437,52.4291951 C63.2082312,52.7982197 63.7612625,52.9985926 63.9551687,52.6871951 C64.2080437,52.2811623 64.4667625,51.8407648 64.5777937,51.3712893 C64.6904187,50.8848959 64.7191062,50.3794697 64.7233562,49.8825025 C64.7361062,48.6897811 64.7037,47.4859574 64.5921375,46.298523 C64.4938562,45.2654656 64.3663562,44.1864123 64.1017937,43.1813754 C63.817575,42.1070803 63.4170125,41.0708508 63.3697312,39.9495025 C63.3532625,39.558273 62.7619812,39.5551008 62.7587937,39.9495025 C62.7497625,40.7150434 62.88895,41.4504492 63.073825,42.1832115 C62.9192312,42.1763385 62.76145,42.2424246 62.6552,42.4052607 C62.3348562,42.8979984 62.0548875,43.6434492 61.7595125,44.2408672 C61.3366375,45.0968139 60.9642312,45.986068 60.6614187,46.8901254 C60.3936687,47.6947893 60.2125125,48.5317033 60.3341687,49.3781336 C60.3607312,49.5541869 60.4165125,49.7260107 60.4988562,49.8814451 C60.4956687,49.9575762 60.4930125,50.0337074 60.4924812,50.1098385 C60.481325,50.0791746 60.4722937,50.0490393 60.4606062,50.0189041 C59.6642625,47.7302115 58.7032312,45.500732 57.6279812,43.3283508 C57.897325,43.5514574 58.2537937,43.654023 58.7234187,43.5562156 C58.8944812,43.5202648 59.0597,43.3748754 59.1356687,43.2093959 C59.3077937,43.3198918 59.5128562,43.3690598 59.737575,43.3606008 C59.8278875,43.6550803 60.3208875,43.6434492 60.3846375,43.3309943 C60.4223562,43.1485967 60.4510437,42.9667279 60.4786687,42.784859 C60.5509187,42.5696828 60.57695,42.3307156 60.5870437,42.1366869 C60.5966062,41.9606336 60.5966062,41.7798221 60.5934187,41.5958385 C60.6178562,41.140109 60.6247625,40.6812074 60.6284812,40.2170189 C60.6337937,39.0993713 60.5753562,37.9859533 60.3936687,36.881523 C60.2332312,35.924068 59.899075,34.9771869 59.5351687,34.077359 C59.363575,33.6517648 59.1606375,33.2415025 58.9040437,32.8624328 C58.6926062,32.5483918 58.369075,32.2724164 58.3271062,31.8684984 C58.2771687,31.3995516 57.5477625,31.3821049 57.5769812,31.8684984 C57.6216062,32.6298098 58.1788875,33.1696008 58.5056062,33.8172443 C58.7016375,34.204773 58.8673875,34.6266664 59.0092312,35.0596623 C58.8126687,34.9993918 58.5661687,35.0834533 58.4678875,35.2753672 C58.34995,35.1490107 58.1236375,35.1204615 57.999325,35.3129041 C57.8792625,35.4984738 57.76345,35.6903877 57.6540125,35.8865311 C57.3517312,35.9499738 57.0993875,36.1873549 56.864575,36.3718672 C56.4852625,36.6695189 56.3391687,37.2431459 56.2616062,37.7575598 C56.0135125,38.0885189 55.8599812,38.4490844 55.81695,38.897941 C55.7611687,39.4779123 56.0012937,40.1112811 56.2669187,40.6415557 C56.27595,40.6790926 56.2817937,40.7161008 56.2913562,40.7536377 C55.57045,39.4192279 54.8112937,38.0885189 53.9899812,36.8027484 C54.0691375,36.6462566 54.0239812,36.4094041 53.81945,36.375568 C53.7801375,36.3697525 53.7424187,36.3676377 53.7057625,36.3634082 C53.1575125,35.5264943 52.5816375,34.7101992 51.972825,33.9266828 C52.1226375,34.0303057 52.2820125,34.1191254 52.4482937,34.1862689 C52.5970437,34.7635967 53.4868875,34.8006049 53.7673875,34.2893631 C53.7721687,34.3321869 53.7764187,34.3750107 53.7822625,34.4173057 C53.8263562,34.7345189 54.157325,34.8688057 54.44845,34.8238672 C54.5961375,34.9285475 54.8219187,34.9264328 54.9340125,34.7302893 C55.9460437,32.963941 55.7377937,30.8121787 55.18795,28.9263467 C54.9132937,27.9852811 54.4489812,27.1800885 53.9591687,26.3410598 C53.3652312,25.3270352 52.5518875,24.1665639 51.5207312,23.5532852 C51.2992,23.3724738 50.9097937,23.6405189 51.0782,23.9386992 C51.6089187,24.8750066 52.33195,25.6960598 52.8796687,26.6297238 C52.57845,26.612277 52.26395,26.8591746 52.3861375,27.2054656 C52.3909187,27.2181541 52.3951687,27.2313713 52.39995,27.2456459 C51.9244812,27.6802279 51.8251375,28.6810352 51.654075,29.1917484 C51.411825,29.9165803 51.139825,30.6308385 51.0139187,31.3889779 C50.9422,31.818273 50.8896062,32.286691 50.9878875,32.7069984 C50.3434812,31.9329984 49.67995,31.1764451 48.997825,30.4346951 C49.1003562,30.4188344 49.1970437,30.368609 49.2544187,30.2893057 C49.3813875,30.441568 49.6369187,30.4843918 49.7814187,30.3215557 C50.4523875,29.5586582 50.3498562,28.2152607 50.234575,27.2800107 C50.0890125,26.1084369 49.690575,24.9918467 49.2066062,23.9196664 C48.7757625,22.9637975 48.2806375,22.0190311 47.6649187,21.1694287 C47.340325,20.7211008 47.0221062,20.274359 46.7469187,19.7948385 C46.61995,19.5749041 46.4919187,19.4554205 46.2857937,19.3079164 C46.1497937,19.210109 45.7710125,19.0599615 45.7157625,18.8923672 C45.5776375,18.4662443 44.8976375,18.5259861 44.9119812,19.0002197 C44.9257937,19.4057238 45.1908875,19.6568508 45.48095,19.9085066 C45.886825,20.2595557 46.0839187,20.7353754 46.3707937,21.184232 C46.4324187,21.2815107 46.4967,21.3787893 46.56045,21.4755393 C46.4627,21.5310516 46.3766375,21.6082402 46.3102312,21.6938877 C45.8267937,22.3219697 46.1657312,23.4967156 46.2124812,24.2115025 C46.231075,24.4858918 46.2294812,24.7539369 46.24595,25.0225107 C46.22045,25.6082975 46.18645,26.1940844 46.1806062,26.7814574 C46.17795,27.0352279 46.3022625,27.2112811 46.473325,27.3085598 C46.48395,27.4925434 46.503075,27.674941 46.53495,27.8552238 C46.248075,27.5644451 45.9596062,27.2741951 45.6716687,26.9850025 C44.4710437,25.7811787 43.213575,24.660359 41.9104187,23.5918795 C41.9662,23.5739041 42.0225125,23.546941 42.0756375,23.5088754 C42.2355437,23.3952074 42.3619812,23.2746664 42.4650437,23.1483098 C42.5011687,23.2910557 42.53995,23.4353877 42.5787312,23.5813057 C42.6669187,23.9106787 43.1673562,23.9159656 43.251825,23.5813057 C43.6917,21.8598959 43.1981687,19.9867525 42.65895,18.3293139 C42.3959812,17.5241213 41.9587625,16.7480066 41.5937937,15.9824656 C41.4232625,15.6245434 41.24795,15.2692648 41.0646687,14.9171582 C40.9541687,14.7051541 40.8643875,14.5417893 40.684825,14.381068 C40.5100437,14.2235189 40.2975437,14.0564533 40.2199812,13.8275311 C40.1020437,13.4801828 39.605325,13.5467975 39.5851375,13.91265 C39.567075,14.2414943 39.7025437,14.5047811 39.8996375,14.7633098 C40.1732312,15.1207033 40.3352625,15.4876131 40.5042,15.903691 C40.5690125,16.0612402 40.6311687,16.219318 40.69545,16.3773959 C40.5180125,16.3017934 40.3012625,16.3187115 40.1047,16.5016377 C39.1638562,17.3713303 39.061325,18.9684984 39.4050437,20.143773 C39.4645437,20.3515475 39.5633562,20.5661951 39.6929812,20.773441 C39.6993562,21.2386869 39.7301687,21.6436623 39.7811687,21.9159369 C39.422575,21.644191 39.0607937,21.3745598 38.6963562,21.1065148 C38.1194187,20.6819779 37.5382312,20.2616705 36.95545,19.8429492 C37.0622312,19.8350189 37.165825,19.797482 37.2524187,19.7255803 C37.2561375,19.7303385 37.2577312,19.7350967 37.2609187,19.7393262 C37.3788562,19.9190803 37.6280125,19.9190803 37.7448875,19.7393262 C37.9552625,19.4173549 37.935075,19.0351131 37.9132937,18.6623877 C37.9419812,18.6417689 37.9696062,18.6185066 37.9951062,18.5931295 C38.0997625,18.4884492 38.0987,18.3150393 37.9951062,18.210359 C37.9611062,18.1770516 37.9249812,18.1479738 37.8872625,18.1215393 C37.8697312,17.7170926 37.8474187,17.3115885 37.8123562,16.9081992 C37.7385125,16.0184164 37.5839187,15.1233467 37.3363562,14.2658139 C37.2492312,13.968691 37.1392625,13.6858426 37.008575,13.4146254 C37.0006062,13.379732 36.9921062,13.3437811 36.983075,13.3094164 C36.8237,12.7014246 36.490075,12.2388221 36.1532625,11.7201787 C35.9338562,11.3812893 35.6326375,11.0402852 35.2251687,11.0149082 C34.9420125,10.7236008 34.6492937,10.4386377 34.3592312,10.1579041 C34.1446062,9.94907213 33.821075,10.2710434 34.03145,10.4851623 C34.5680125,11.0349984 35.1082937,11.5901213 35.5752625,12.1907115 C35.614575,12.30015 35.6496375,12.4027156 35.6836375,12.4862484 C35.7553562,12.6623016 35.8276062,12.824609 35.9476687,12.9747566 C35.9896375,13.0281541 36.026825,13.1825311 36.0597625,13.3527689 C36.0002625,13.3384943 35.933325,13.3437811 35.8616062,13.3807893 C35.8456687,13.3887197 35.8302625,13.3982361 35.8137937,13.4072238 C35.7829812,13.243859 35.7436687,13.0847238 35.6852312,12.9361623 C35.5630437,12.6200066 35.1890437,12.6987811 35.1189187,12.9398631 C35.1162625,12.9388057 35.1125437,12.9372197 35.1093562,12.9361623 C35.0387,13.1370639 35.0232937,13.357527 35.028075,13.5795762 C34.4644187,13.8671828 34.0967937,15.0017484 34.0064812,15.4157115 C33.8391375,16.1923549 33.8513562,17.0631049 34.1424812,17.8074984 C33.5549187,17.3766172 32.9678875,16.9457361 32.3712937,16.5296582 C33.2255437,15.968191 33.8986375,15.2248549 33.7557312,14.1674779 C33.73395,14.002527 33.46195,14.0125721 33.4311375,14.1674779 C33.3073562,14.7839287 32.864825,15.2682074 32.312325,15.6647238 C32.3999812,15.3290066 32.2793875,14.9980475 32.0525437,14.7453344 C32.1858875,14.5941295 32.1609187,14.2943631 31.9648875,14.2118877 C31.8474812,14.162191 31.7237,14.1257115 31.5956687,14.1008631 C31.8395125,13.9084205 32.0036687,13.6763262 32.112575,13.4193836 C32.1938562,13.4193836 32.2751375,13.4088098 32.3511062,13.3866049 C32.37395,13.4870557 32.3999812,13.5864492 32.4297312,13.6853139 C32.5062312,13.9401418 32.8786375,13.9454287 32.9524812,13.6853139 C33.3572937,12.2573262 32.7367937,10.5750393 32.1077937,9.29244098 C31.7677937,8.59668689 31.3311062,7.9511582 30.858825,7.33787951 C30.62295,7.03282623 30.37645,6.73676066 30.1241062,6.44598197 C29.9865125,6.2879041 29.8446687,6.13405574 29.7033562,5.98126475 C29.609325,5.88134262 29.3277625,5.68202705 29.3298875,5.53293689 C29.333075,5.05658852 28.7306375,4.81497787 28.39595,5.14805164 C28.0586062,5.48324016 28.3035125,6.07907213 28.7827,6.07748607 C28.9898875,6.07695738 29.388325,6.67913361 29.520075,6.82769508 C29.7697625,7.11054344 30.0067,7.40185082 30.2303562,7.70373197 C30.5772625,8.17003525 30.8869812,8.66330164 31.1621687,9.17507213 C31.1212625,9.20150656 31.0814187,9.23481393 31.0447625,9.27710902 C31.0447625,9.22582623 31.0447625,9.17507213 31.0431687,9.12431803 C31.0357312,8.8446418 30.8365125,8.70030984 30.625075,8.68762131 C30.612325,8.60567459 30.5990437,8.52478525 30.5841687,8.44336721 C30.5305125,8.14835902 30.0391062,8.14835902 29.9865125,8.44336721 C29.8792,9.0429 29.8250125,9.65459262 29.78995,10.2684 C29.7772,10.3276131 29.7692312,10.3873549 29.7649812,10.4502689 C29.7230125,11.1069 29.6916687,11.7582443 29.6916687,12.4169902 C29.6799812,12.5930434 29.7400125,12.727859 29.8367,12.8235516 C29.91745,13.2713508 30.0932937,13.6948303 30.4221375,14.0765434 C30.4354187,14.090818 30.4487,14.1035066 30.4619812,14.1167238 C30.0327312,14.1923262 29.600825,14.3313713 29.2066375,14.4873344 C28.4437625,14.0051705 27.679825,13.52565 26.91695,13.0461295 C27.5002625,12.5454615 27.9597937,11.9956254 28.4002,11.3469246 C28.54045,11.1386213 28.2604812,10.8605311 28.0517,11.0011623 C27.9385437,11.0772934 27.8280437,11.154482 27.718075,11.2327279 C27.577825,11.2401295 27.4306687,11.2221541 27.2962625,11.2475311 C27.0827,10.9498795 26.7777625,10.7013959 26.4903562,10.551777 C26.48345,10.5486049 26.4765437,10.5464902 26.4712312,10.543318 C26.5062937,10.4354656 26.5222312,10.3186254 26.5132,10.1959697 C26.5557,10.0394779 26.5487937,9.86553934 26.4696375,9.69477295 C26.693825,9.84703525 27.0561375,9.7661459 27.0386062,9.42355574 C26.9578562,7.87502705 25.9872625,6.62626475 25.0767,5.43037131 C24.4471687,4.60350246 23.6147,3.37060082 22.4672,3.33465 C22.3529812,3.33147787 22.2647937,3.36637131 22.2021062,3.42135492 C22.0480437,3.35949836 21.8987625,3.29288361 21.7393875,3.19349016 C21.42595,3.00051885 21.0694812,2.8741623 20.756575,2.6806623 C20.6057,2.5881418 20.38895,2.78058443 20.501575,2.93231803 C20.8506062,3.40126475 21.3845125,3.92466639 21.9162937,4.17209262 C22.405575,4.39995738 22.7237937,4.72245738 23.0138562,5.13853525 C23.0122625,5.14276475 23.0106687,5.1454082 23.009075,5.14910902 C22.7556687,5.71427705 22.7365437,6.31328115 22.8417312,6.90329754 C22.8167625,7.09045328 22.8082625,7.27232213 22.8103875,7.41401066 C22.8172937,8.28581803 23.0340437,9.40187951 23.7337,9.99453934 C23.9616062,10.1875107 24.2617625,10.3196828 24.5640437,10.3334287 C24.598575,10.3699082 24.6347,10.4021582 24.670825,10.4375803 C24.6235437,10.4502689 24.5752,10.4634861 24.5273875,10.4793467 C24.1831375,10.5871992 23.8596062,10.7458057 23.5552,10.9403631 L22.7386687,10.4312361 C22.3662625,10.1980844 21.972075,9.99295328 21.57045,9.80262541 C21.7712625,9.68419918 21.9651687,9.55308443 22.1457937,9.40293689 C22.4092937,9.18511721 22.1967937,8.70929754 21.8647625,8.72991639 C21.7261062,8.73943279 21.5858562,8.75476475 21.4487937,8.7759123 C21.4126687,8.65272787 21.2766687,8.60197377 21.1640437,8.66541639 C21.1629812,8.62365 21.1587312,8.58188361 21.1534187,8.54011721 C21.3908875,8.65008443 21.6251687,8.3704082 21.57895,8.1399 C21.4466687,7.46106393 21.0147625,6.89959672 20.6046375,6.35927705 C20.1440437,5.75234262 19.6446687,5.17977295 19.1251062,4.62253525 C18.1152,3.53978115 17.0027625,2.57069508 15.8494187,1.64443279 C15.5827312,1.43031393 15.1141687,1.54133852 15.12745,1.94155574 C15.1205437,1.73378115 15.1386062,1.85062131 15.0780437,1.9664041 C14.88945,2.32696967 15.1205437,2.7864 15.550325,2.7864 C15.6363875,2.7864 15.7144812,2.76683852 15.7830125,2.73353115 C16.3057625,3.22362541 16.8173562,3.72482213 17.3188562,4.23712131 C17.301325,4.25033852 17.284325,4.26249836 17.26945,4.27730164 C17.0558875,4.16680574 16.740325,4.24082213 16.646825,4.52367049 C16.2977937,5.57576066 16.9113875,6.68442049 17.5207312,7.5134041 C17.7438562,7.81792869 17.9908875,8.11293689 18.2586375,8.39049836 C17.6381375,8.14730164 17.0117937,7.91732213 16.3801375,7.70055984 C16.387575,7.68099836 16.3971375,7.65985082 16.4040437,7.63923197 C16.4433562,7.60962541 16.4794812,7.57473197 16.5092312,7.53666639 C16.9985125,6.90118279 16.4794812,5.84909262 16.0868875,5.29132623 C15.6061062,4.60931803 14.9277,4.09437541 14.2546062,3.61221148 C13.4524187,3.0396418 12.7251375,2.40680164 11.874075,1.89555984 C11.4841375,1.66082213 11.0841062,1.4408877 10.6957625,1.20350656 C10.2309187,0.918543443 9.67045,0.789014754 9.239075,0.442195082 C8.8151375,0.101190984 8.2371375,0.640453279 8.6292,1.04754344 C8.87304375,1.29972787 9.15673125,1.50803115 9.45795,1.69941639 C9.64441875,2.83874016 10.645825,3.53766639 11.3306062,4.42692049 C11.7710125,5.00001885 12.1667937,5.56571557 12.5147625,6.20225656 C12.5806375,6.32279754 12.6491687,6.44386721 12.7187625,6.5644082 C12.3426375,6.41161721 11.9511062,6.31380984 11.5505437,6.24508033 C11.155825,6.17687951 10.7557937,6.1451582 10.3547,6.12929754 C10.454575,5.87817049 10.5050437,5.59479344 10.5209812,5.37803115 C10.5475437,4.99896148 10.5432937,4.63892459 10.2298562,4.37352295 C9.90154375,4.09649016 9.5121375,3.91197787 9.10679375,3.77663361 C9.03666875,3.75442869 8.96548125,3.73909672 8.8927,3.72958033 C8.87410625,3.7264082 8.8576375,3.72429344 8.8427625,3.72165 C8.6632,3.61644098 8.4730125,3.52973607 8.28335625,3.44620328 C7.88385625,3.26962131 7.47373125,3.12899016 7.05245,3.0169082 C6.32198125,2.82393689 5.51979375,2.78005574 4.82066875,3.08986721 C4.7946375,3.10044098 4.7733875,3.11683033 4.75266875,3.13480574 C4.734075,3.13374836 4.71495,3.13321967 4.69741875,3.1321623 C3.2008875,3.07823607 1.70595,3.18450246 0.2142,3.25005984 C-0.03070625,3.26063361 -0.0312375,3.61802705 0.2142,3.62701475 C0.49098125,3.63758852 0.768825,3.64446148 1.04773125,3.64869098 C0.98185625,3.6983877 0.9930125,3.82633033 1.08598125,3.84536311 C1.797325,3.99498197 2.51823125,4.04996557 3.24179375,4.11235082 C3.52866875,4.13825656 3.80173125,4.16892049 4.0678875,4.21068689 C4.27666875,5.03332623 5.2812625,5.26171967 6.0356375,5.4123959 C6.0696375,5.41874016 6.1047,5.42508443 6.13923125,5.4309 C6.32198125,5.6381459 6.55466875,5.81578525 6.7602625,5.97967869 C7.21023125,6.33971557 7.67135625,6.69869508 8.19729375,6.94559262 C8.690825,7.17662951 9.28741875,7.30245738 9.79423125,7.03282623 C9.91960625,6.96568279 10.0194812,6.87792049 10.0970437,6.77746967 C10.3345125,6.79174426 10.57145,6.81077705 10.8083875,6.83826885 C11.3672625,6.90329754 11.8586687,7.0893959 12.3660125,7.26386311 C11.572325,7.51128934 10.8556687,7.97283443 10.0545437,8.19805574 C9.99716875,7.94111311 9.647075,7.95010082 9.613075,8.22713361 C9.60298125,8.30273607 9.5928875,8.3793959 9.57854375,8.45552705 C9.5418875,8.64162541 9.65610625,8.76851066 9.83673125,8.79230164 C10.1453875,8.83301066 10.4412937,8.8219082 10.7356062,8.77749836 C10.798825,8.86737541 10.9018875,8.92605984 11.0394812,8.91284262 C11.0400125,8.91284262 11.041075,8.91284262 11.0421375,8.91284262 C11.4937,8.96729754 11.92295,8.87001885 12.3511375,8.74947787 C12.4627,8.74101885 12.5822312,8.72727295 12.7038875,8.70612541 C12.7761375,8.76269508 12.8760125,8.78384262 12.9610125,8.72568689 C13.1288875,8.61254754 13.2585125,8.52954344 13.4024812,8.48671967 C13.5161687,8.46874426 13.6303875,8.4576418 13.7462,8.45394098 C13.9342625,8.46821557 14.0718562,8.39049836 14.1557937,8.27154344 C14.2758562,8.33921557 14.4044187,8.3889123 14.5367,8.42644918 C14.0830125,8.5358877 13.6256062,8.72780164 13.24895,8.83935492 C12.4547312,9.07356393 11.7014187,9.14652295 10.8997625,9.1348918 C10.8864812,9.13436311 10.8737312,9.13436311 10.8599187,9.13436311 C10.8647,9.07567869 10.8365438,9.01487951 10.7712,9.00483443 C10.5215125,8.96306803 10.4046375,8.97628525 10.2851062,9.11268689 C9.72995,9.04395738 9.1657625,8.79335902 8.65204375,8.62312131 C8.06766875,8.42856393 7.46204375,8.2503959 6.85641875,8.12774016 C6.72679375,8.10130574 6.67473125,8.28528934 6.80223125,8.32652705 C7.9757625,8.7018959 9.04091875,9.46796557 10.2681062,9.67468279 C10.2734188,9.67785492 10.2782,9.68208443 10.2840437,9.68578525 C11.1276687,10.1980844 12.1168562,10.1589615 13.0566375,9.99030984 C13.54645,9.90201885 14.037325,9.77460492 14.5186375,9.64031803 C14.9818875,9.51026066 15.4934812,9.48171148 15.8297625,9.10422787 C15.9933875,8.92130164 15.98595,8.61096148 15.7495437,8.48513361 C15.724575,8.47085902 15.6974812,8.46134262 15.6719812,8.44918279 C15.7235125,8.43385082 15.7707937,8.40794508 15.8154187,8.37780984 C16.2962,8.55069098 16.7748562,8.73150246 17.2492625,8.92130164 C17.2981375,8.94033443 17.34595,8.96042459 17.3942937,8.97945738 C17.2126062,9.1306623 17.0516375,9.30883033 16.9151062,9.50550246 C16.5798875,9.67574016 16.2313875,9.81372787 15.8510125,9.86236721 C15.274075,9.9369123 15.2427312,10.7426336 15.8510125,10.7796418 C16.05395,10.7923303 16.2489187,10.7769984 16.4401687,10.7415762 C16.4327312,10.8007893 16.4274187,10.8605311 16.4247625,10.920273 C16.4157312,11.1042566 16.5092312,11.2803098 16.6500125,11.3992648 C16.4699187,11.4029656 16.2892937,11.4008508 16.1044187,11.3987361 C15.2129812,11.3855189 14.3353562,11.3574984 13.4460437,11.3728303 C13.255325,11.3760025 13.25745,11.6572648 13.4460437,11.6641377 C15.23795,11.7402689 16.8858875,12.6665311 18.6560125,11.8914738 C19.3684187,11.5790189 20.0223875,11.1470803 20.5626687,10.5877279 C20.6110125,10.5375025 20.6620125,10.4830475 20.7124812,10.4259492 C20.9552625,10.5412033 21.1975125,10.6569861 21.4397625,10.7769984 C21.8977,11.0022197 22.346075,11.2565189 22.7864812,11.5277361 C22.2233562,12.0299902 21.7239812,12.6252934 21.262325,13.1952197 C21.0546062,13.1957484 20.8474187,13.3353221 20.8293562,13.613941 C20.8277625,13.637732 20.8261687,13.6609943 20.8240437,13.6847852 C20.5977312,13.6773836 20.374075,13.6572934 20.1482937,13.6075967 C19.7158562,13.5097893 19.3041375,13.3913631 18.8584187,13.3681008 C18.1545125,13.3326787 18.15345,14.4339369 18.8584187,14.4577279 C19.3121062,14.4725311 19.7461375,14.6237361 20.1929187,14.6977525 C20.6508562,14.7728262 21.1252625,14.7352893 21.5890437,14.7310598 C22.5150125,14.7226008 23.4967625,14.8204082 24.3919187,14.5460189 C25.002325,14.3593918 25.559075,14.0448221 26.0812937,13.6826705 C26.766075,14.1220107 27.4529812,14.5592361 28.1398875,14.9954041 C27.2468562,15.532023 26.4159812,16.4302648 26.4457312,17.5040311 C26.4489187,17.5796336 26.4829187,17.6409615 26.5333875,17.6800844 C26.3007,17.6541787 26.0680125,17.6182279 25.8385125,17.5732893 C25.6137937,17.5299369 25.346575,17.5865066 25.1186687,17.5928508 C24.7404187,17.6050107 24.390325,17.5262361 24.0444812,17.378732 C23.8744812,17.3063016 23.7236062,17.5473836 23.8957312,17.6303877 C24.3871375,17.8651254 24.9077625,17.9655762 25.44645,18.0247893 C26.1817,18.1030352 26.8834812,18.3097525 27.6298875,18.339359 C28.1096062,18.3578631 28.8331687,18.3605066 29.265075,18.1146664 C29.6571375,17.8920885 30.0667312,17.701232 30.4757937,17.5103754 C30.7605437,17.3776746 31.0814187,17.2328139 31.4092,17.0705066 L31.8336687,17.3406664 C32.495075,17.7604451 33.1033562,18.3012934 33.73395,18.765482 C33.8662312,18.8627607 33.9979812,18.9579246 34.1302625,19.0552033 C33.9113875,19.0361705 33.6787,19.0509738 33.451325,19.0594328 C32.801075,19.0853385 32.2278562,19.1672852 31.6445437,19.4924287 C31.3289812,19.6679533 30.999075,20.0761008 30.6330437,20.1289697 C30.255325,20.1828959 29.9907625,20.5149123 29.6380125,20.6306951 C29.48395,20.6803918 29.4637625,20.9214738 29.6380125,20.9616541 C29.8271375,21.0039492 30.0465437,21.0488877 30.2388562,20.9960189 C30.3589187,20.9621828 30.4800437,20.9510803 30.6011687,20.9399779 C30.561325,21.0954123 30.5793875,21.2661787 30.6627937,21.3999369 C30.80995,21.6362607 31.0091687,21.7948672 31.2386687,21.9006049 C30.863075,21.8815721 30.4901375,21.8413918 30.1352625,21.773191 C29.3261687,21.6172279 28.7375437,20.917773 28.0272625,20.5445189 C27.6941687,20.3689943 27.3998562,20.8680762 27.7313562,21.0478303 C28.4416375,21.4321869 29.0095437,22.0983344 29.7766687,22.3663795 C30.654825,22.6751336 31.6413562,22.7031541 32.5625437,22.7026254 C33.35145,22.7026254 34.076075,22.5122975 34.7667,22.2283918 C34.7916687,22.2215189 34.8161062,22.2146459 34.8421375,22.2067156 C35.4127,22.0338344 35.9662625,21.8366336 36.3184812,21.450691 C36.5251375,21.3338508 36.7317937,21.2138385 36.93845,21.0964697 C38.1380125,21.9693344 39.3285437,22.8517156 40.4946375,23.7695189 C40.3814812,23.7652893 40.272575,23.7626459 40.1732312,23.7584164 C39.58195,23.7383262 38.9943875,23.7822074 38.4052312,23.7927811 C38.0599187,23.7991254 37.671575,24.0217033 37.3517625,24.1396008 C36.9347312,24.2934492 36.5171687,24.4478262 36.1001375,24.6016746 C35.73995,24.7349041 35.4498875,24.820023 35.1805437,25.0959984 C34.9452,25.337609 34.7098562,25.4169123 34.3826062,25.4782402 C34.2253562,25.5078467 34.135575,25.595609 34.0983875,25.7029328 C33.6617,25.4576213 33.2574187,25.1520393 32.9041375,24.774027 C32.639575,24.4890639 32.2161687,24.9136008 32.4770125,25.1980352 C33.9071375,26.7534369 35.8159187,27.4365025 37.9085125,27.410068 C38.9566687,27.3963221 39.9910125,27.191191 40.9849812,26.8750352 C41.6118562,26.675191 42.4847,26.408732 43.0674812,25.9413713 C44.5645437,27.3075025 45.9782,28.7650967 47.365825,30.2411951 C47.2192,30.3263139 47.0741687,30.4151336 46.928075,30.504482 C46.8574187,30.4479123 46.787825,30.3881705 46.719825,30.3289574 C46.6576687,30.1846254 46.5641687,30.0466377 46.443575,29.9165803 C46.4202,29.8912033 46.3941687,29.869527 46.3707937,29.8457361 C46.2379812,28.7915311 44.4933562,28.7328467 43.6693875,28.859732 C42.9325437,28.9734 42.1048562,29.2361582 41.5040125,29.7288959 C41.3642937,29.7992115 41.228825,29.8748139 41.0997312,29.9551746 C40.8734187,30.095277 40.663575,30.2559984 40.5010125,30.4606008 C40.0159812,30.528273 39.5176687,30.5488918 39.0352937,30.5880148 C38.6597,30.4833344 38.28145,30.3902852 37.8978875,30.3289574 C37.4511062,30.256527 37.2524187,30.9274328 37.7087625,31.0141377 C37.9542,31.0617197 38.1975125,31.118818 38.4387,31.1822607 C38.49395,31.254691 38.5832,31.3086172 38.7048562,31.3218344 C38.8323562,31.3366377 38.9582625,31.351441 39.0836375,31.3651869 C40.4399187,31.7749205 41.7483875,32.2909205 43.2098562,32.3125967 C44.3276062,32.3284574 45.6068562,32.2512689 46.6295125,31.7437279 C47.2436375,32.1079943 47.9916375,32.2967361 48.5701687,31.8092852 C48.619575,31.7669902 48.6487937,31.7072484 48.662075,31.6438057 C49.4180437,32.4833631 50.153825,33.3430107 50.8577312,34.2269779 C51.454325,34.9745434 51.9972625,35.7580598 52.5152312,36.5574369 C52.4504187,36.5822852 52.3840125,36.6092484 52.3202625,36.6367402 C52.30645,36.5489779 52.2846687,36.462273 52.25545,36.384027 C52.1662,36.139773 52.0147937,35.9198385 51.8224812,35.7252811 C51.8081375,35.503232 51.6477,35.2896418 51.335325,35.253691 C51.2806062,35.246818 51.224825,35.2425885 51.1685125,35.236773 C50.6335437,34.9385926 50.00295,34.7757566 49.4770125,34.7895025 C48.6036375,34.8111787 47.7148562,34.8714492 46.8622,35.0734082 C46.5492937,35.0734082 46.2369187,35.0734082 45.92295,35.0723508 C45.4368562,35.0712934 45.2169187,35.4767975 45.2626062,35.8463508 C45.262075,35.8468795 45.2610125,35.8479369 45.2610125,35.8479369 C45.1999187,35.8072279 45.138825,35.7670475 45.0787937,35.7279246 C44.5847312,35.4117689 43.3575437,35.5756623 43.2396062,34.7725844 C43.183825,34.3966869 42.56545,34.4897361 42.5787312,34.8614041 C42.6116687,35.6755844 43.5169187,36.1995148 44.2032937,36.4337238 C44.2702312,36.4554 44.339825,36.4733754 44.40995,36.48765 L44.505575,36.502982 C44.6357312,36.4892361 44.6654812,36.5040393 44.5958875,36.5489779 C44.8407937,36.7297893 45.0687,36.9312197 45.3077625,37.1178467 C45.7949187,37.495859 46.2895125,37.8548385 46.8467937,38.1218262 C47.4354187,38.4041459 47.9895125,38.4131336 48.6248875,38.478691 C49.2480437,38.543191 49.85845,38.6045189 50.485325,38.5437197 C51.1371687,38.480277 51.7045437,38.2402525 52.2899812,37.9621623 C52.5694187,37.8299902 52.8557625,37.6856582 53.1272312,37.5207074 C53.2536687,37.7226664 53.3785125,37.9251541 53.5033562,38.1286992 C54.5297312,39.8014697 55.4859812,41.5181213 56.3641375,43.2728385 C56.2467312,43.1554697 56.1213562,43.0386295 56.0129812,42.898527 C55.2256687,41.8739287 54.1642312,41.3494697 52.8796687,41.340482 C51.9712312,41.3351951 49.5370437,41.2268139 48.9462937,42.2551131 C48.6742937,42.0150885 48.407075,41.7845803 48.0899187,41.5931951 C47.92045,41.4916869 47.6303875,41.3156336 47.4269187,41.3230352 C47.2367312,41.3299082 47.17245,41.243732 47.0114812,41.1274205 C46.7182312,40.9122443 46.2873875,41.3388959 46.5057312,41.630732 C46.6125125,41.7755926 46.72195,41.9521746 46.8861062,42.041523 C47.0407,42.1250557 47.2261062,42.1176541 47.3605125,42.2038303 C47.7913562,42.4771623 48.11595,42.8498877 48.4761375,43.2030516 C49.2815125,43.9918549 50.2823875,44.6733344 51.3156687,45.1274779 C52.3856062,45.6001254 53.6292625,45.9083508 54.7985437,45.9580475 C55.6889187,45.9955844 56.6706687,45.4436336 57.0064187,44.5945598 C57.2577,45.1274779 57.5042,45.6646254 57.7395437,46.2060025 C58.4445125,47.824318 59.0458875,49.4817566 59.59945,51.1561131 C59.465575,51.0228836 59.329575,50.8912402 59.1919812,50.7617115 C58.8950125,50.4820352 58.577325,50.3498631 58.2001375,50.2002443 C57.531825,49.9348426 56.8066687,49.7889246 56.0852312,49.8005557 C55.8100437,49.8047852 55.4137312,49.8809164 55.0450437,50.0252484 C54.5594812,49.9829533 54.0760437,49.9084082 53.609075,49.7788795 C53.2637625,49.6831869 52.8833875,49.596482 52.5077937,49.4865148 C52.4939812,49.4510926 52.4812312,49.4161992 52.4690125,49.3797197 C52.4127,49.2041951 52.2586375,49.114318 52.1954187,48.9488385 C52.1210437,48.7558672 52.1401687,48.5317033 52.13645,48.3281582 C52.1231687,47.6873877 51.1477937,47.6873877 51.1371687,48.3281582 C51.1345125,48.4904656 51.1265437,48.6633467 51.1307937,48.8367566 C51.0202937,48.7463508 50.9167,48.6485434 50.825325,48.5364615 C50.731825,48.4233221 50.5458875,48.5708262 50.6229187,48.6924246 C50.7812312,48.944609 50.9777937,49.1497402 51.1977312,49.3247361 C51.2189812,49.4019246 51.246075,49.4769984 51.284325,49.5467852 C51.3911062,49.7498016 51.433075,49.7836377 51.4766375,49.9168672 C51.560575,50.1706377 51.69445,50.4080189 51.8405437,50.6305967 C52.0498562,50.9446377 52.30645,51.2227279 52.5885437,51.475441 C52.6565437,51.8629697 52.8010437,52.2150762 53.056575,52.5920311 C53.4582,53.184691 53.885325,53.7863385 54.412325,54.2732607 C54.9233875,54.7469656 55.5029812,55.0906131 56.1665125,55.304732 C56.4661375,55.4020107 56.7779812,55.4411336 57.0877,55.4823713 C57.46595,55.5315393 57.7198875,55.4104697 58.0285437,55.2566213 C58.8222312,55.4940025 59.652575,55.4823713 60.5052312,55.3618303 C61.2362312,57.6457648 62.2700437,59.8377074 62.7322312,62.197773 C63.337325,65.2847852 64.29145,68.311527 64.9804812,71.3853221 C65.1977625,72.3549369 65.3911375,73.3277238 65.5637937,74.3026254 C65.581325,74.4088918 65.5993875,74.5135721 65.61745,74.6193098 C65.623825,74.6579041 65.6312625,74.6964984 65.6381687,74.7345639 C66.3978562,79.2178426 66.6746375,83.7582197 66.4403562,88.3144574 C65.887325,99.0785557 62.5962312,109.586769 57.1248875,118.870539 C55.2979187,121.969183 53.2467625,124.944642 50.9767312,127.740347 C50.5650125,128.248416 51.24395,128.970605 51.7146375,128.473109 C59.1022,120.667023 63.8616687,110.579646 66.2650437,100.188273 C67.4784187,94.9346951 68.0601375,89.5293836 67.9310437,84.1394041" id="Fill-1" fill="#858585" mask="url(#mask-4)"></path>
                                </g>
                                <g id="Group-6" transform="translate(0.000000, 30.000000)">
                                    <mask id="mask-6" fill="white">
                                        <use xlink:href="#path-5"></use>
                                    </mask>
                                    <g id="Clip-5"></g>
                                    <path d="M8.16053125,74.1655704 C8.31725,74.1861136 8.4745,74.2098173 8.63015625,74.2361547 C8.57809375,74.2740807 8.5308125,74.3193811 8.48725,74.374163 C8.3863125,74.4968955 8.3119375,74.6248955 8.25721875,74.7565827 C8.24553125,74.6996938 8.23490625,74.6417514 8.22109375,74.5822288 C8.19134375,74.4521218 8.16053125,74.3209613 8.1313125,74.1898008 C8.14140625,74.1818996 8.15096875,74.1739984 8.16053125,74.1655704 M11.8479375,77.2312494 C11.9541875,77.2096527 12.0439687,77.1395951 12.1002812,77.0532082 C12.2479687,77.2560066 12.393,77.4645992 12.5683125,77.6315786 C12.5858437,77.6479078 12.6017812,77.6616033 12.6198437,77.6758255 C12.6039062,77.6774058 12.5874375,77.6805663 12.5720312,77.6826733 C12.1635,77.7290272 11.7895,77.7148049 11.3873437,77.6268379 C11.375125,77.6252576 11.3639687,77.6210436 11.3533437,77.6189366 C11.56,77.5683687 11.7459375,77.418772 11.8479375,77.2312494 M13.80825,77.7938173 C13.8852812,77.8491259 13.9617812,77.9060148 14.0372187,77.964484 C14.2109375,78.1003852 14.4106875,77.9934551 14.4383125,77.8338502 C14.57325,77.9407802 14.7060625,78.0519243 14.8309062,78.17413 C14.889875,78.2315457 14.9461875,78.2910683 15.000375,78.3511177 C14.9063437,78.3195128 14.8123125,78.2873811 14.71775,78.2568296 C14.375625,78.1419984 14.0335,78.0519243 13.6897812,77.9818667 C13.738125,77.9212905 13.7779687,77.8596609 13.80825,77.7938173 M14.8611875,85.6792494 C14.9159062,85.6244675 14.9716875,85.5717926 15.0274687,85.5175374 C15.3116875,85.6202535 15.6049375,85.6924181 15.89925,85.7224428 C15.9422812,85.749307 15.9831875,85.7772247 16.024625,85.8067226 C15.8153125,85.7951342 15.6054687,85.7814387 15.3961562,85.7709037 C15.1932187,85.7593152 15.000375,85.7472 14.8165625,85.724023 C14.8319687,85.7087473 14.8468437,85.6945251 14.8611875,85.6792494 M18.2213437,85.6018173 C18.1485625,85.6634469 18.0513437,85.7045333 17.9435,85.7340313 C17.9280937,85.5886486 17.8643437,85.4453728 17.7405625,85.3242206 C17.6954062,85.2805004 17.6486562,85.2341465 17.5997812,85.1883193 C17.81175,85.3189531 18.02,85.4564346 18.2213437,85.6018173 M19.8384687,98.9585909 C19.7949062,98.9838749 19.7566562,99.0138996 19.7194687,99.0476115 C19.7077812,98.9559572 19.69025,98.8648296 19.6663437,98.7742288 C19.7237187,98.8363852 19.7800312,98.8974881 19.8384687,98.9585909 M20.2411562,97.5405827 C20.198125,97.5948379 20.1545625,97.6485663 20.1141875,97.7049284 C20.0222812,97.6064263 19.9325,97.5073975 19.8405937,97.4083687 C19.9670312,97.4605169 20.1009062,97.4994963 20.2411562,97.5405827 M26.4929062,109.440895 C26.534875,109.721126 26.5720625,110.006097 26.6044687,110.296863 C26.619875,110.521258 26.7319687,110.669274 26.874875,110.745653 C26.8594687,110.825192 26.843,110.903677 26.826,110.981636 C26.7149687,110.719842 26.6002187,110.457521 26.4790937,110.19836 C26.3739062,109.969751 26.2878437,109.726393 26.216125,109.474607 C26.3106875,109.479875 26.4041875,109.468813 26.4929062,109.440895 M26.8637187,103.031414 C26.9226875,102.934492 26.921625,102.814393 26.88125,102.708517 C26.9593437,102.676385 27.0374375,102.645834 27.117125,102.617389 C27.2451563,102.571562 27.3747813,102.528895 27.5044063,102.487282 C27.3301563,102.695875 27.1968125,102.950821 27.1160625,103.267924 C27.1080937,103.301109 27.1027812,103.333241 27.100125,103.363793 C27.053375,103.356418 27.0071562,103.34799 26.962,103.339562 C26.891875,103.324813 26.8249375,103.305323 26.7574687,103.284253 C26.7840312,103.2005 26.809,103.123068 26.8637187,103.031414 M26.993875,105.903776 C26.9742187,105.791579 26.959875,105.679381 26.9561562,105.564023 C27.0443437,105.6325 27.132,105.701505 27.2196562,105.769982 C27.1420937,105.795266 27.0655937,105.839513 26.993875,105.903776 M30.7939062,103.019299 C30.8247187,102.943447 30.84225,102.871282 30.8475625,102.800698 C31.0372187,102.805965 31.2093437,102.809653 31.348,102.804385 C31.3474687,102.802278 31.3474687,102.798591 31.3464062,102.796484 C31.7703437,102.787529 31.9631875,102.372451 31.8611875,102.052714 C32.1411562,102.098015 32.4184687,102.157011 32.688875,102.237603 C32.5353437,102.298179 32.38925,102.379826 32.25325,102.479908 C32.0625312,102.62213 31.9807187,102.696928 31.75175,102.763826 C31.4276875,102.859167 31.1041562,102.954509 30.7811562,103.04985 C30.7843437,103.039842 30.789125,103.029834 30.7939062,103.019299 M31.0319062,110.844681 C30.9601875,110.991118 30.9044062,111.145982 30.8619062,111.308747 C30.8555312,111.120698 30.8539375,110.933175 30.8518125,110.745126 C30.8879375,110.734064 30.9235312,110.720369 30.9580625,110.702986 C30.963375,110.716155 30.9681562,110.728797 30.974,110.740385 C30.988875,110.772517 31.0090625,110.807282 31.0319062,110.844681 M31.758125,109.112204 C31.7023437,109.126953 31.6502812,109.146443 31.6014062,109.169093 C31.6024687,109.148023 31.6014062,109.1259 31.6024687,109.104303 C31.6035312,109.065323 31.5998125,109.028978 31.5939687,108.994212 C31.6492187,109.033719 31.7039375,109.073751 31.758125,109.112204 M31.9265312,114.356517 C31.902625,114.433949 31.8675625,114.497686 31.8123125,114.536665 C31.8117812,114.538245 31.8096562,114.539299 31.8080625,114.540352 C31.807,114.534558 31.8054062,114.52771 31.8043437,114.521916 C31.77725,114.380747 31.7570625,114.239052 31.741125,114.09841 C31.7464375,114.028352 31.753875,113.958821 31.758125,113.889291 C31.7947812,114.05627 31.8479062,114.215875 31.9265312,114.356517 M37.0424687,112.827891 C37.0669062,112.843167 37.0913437,112.859496 37.1163125,112.875299 C37.1019687,112.895842 37.087625,112.915332 37.07275,112.936928 C37.0116562,112.937982 36.9649062,112.932188 36.926125,112.922706 C36.9654375,112.891101 37.0036875,112.860023 37.0424687,112.827891 M38.7817812,111.061175 C39.2561875,110.799908 39.7805312,110.718788 40.3181562,110.68297 C40.40475,110.676649 40.4908125,110.673488 40.5779375,110.671908 C40.4775312,110.861537 40.3436562,111.030097 40.1911875,111.186015 C40.0998125,111.051694 39.952125,110.956879 39.7683125,110.967414 C39.3236562,110.992698 38.940625,111.156517 38.5947812,111.388813 C38.522,111.397768 38.44975,111.409883 38.3769687,111.422525 C38.3493437,111.386179 38.3169375,111.353521 38.2792187,111.32613 C38.4481562,111.24027 38.6160312,111.152303 38.7817812,111.061175 M42.1886875,116.450871 C42.2349062,116.452978 42.2805937,116.452451 42.3230937,116.44455 C42.2816562,116.527776 42.2412812,116.613109 42.2072812,116.701603 C42.1934687,116.735315 42.1860312,116.769554 42.1817812,116.805373 C42.0595937,116.766393 41.9655625,116.704237 41.888,116.627332 C41.9905312,116.571496 42.0904062,116.514081 42.1886875,116.450871 M45.1291562,114.67836 C45.1535937,114.67836 45.1801562,114.679941 45.2045937,114.679941 C45.392125,114.680994 45.5801875,114.682048 45.7671875,114.683628 C45.764,114.687842 45.7592187,114.692583 45.7555,114.695743 C45.7315937,114.69627 45.7060937,114.697323 45.681125,114.702064 C45.5504375,114.723134 45.458,114.768961 45.3506875,114.846393 C45.315625,114.872731 45.2890625,114.903282 45.2678125,114.936467 C45.1599687,114.998624 45.0510625,115.0592 44.9421562,115.120303 C45.0250312,114.984928 45.0893125,114.839019 45.1291562,114.67836 M53.8820312,123.340221 C53.9234687,123.40027 53.9638437,123.460319 54.00475,123.519842 C53.8522812,123.40185 53.7024687,123.281751 53.5569062,123.155332 C53.6663437,123.214328 53.7757812,123.274377 53.8820312,123.340221 M15.671875,97.6311835 C15.6426562,97.0485992 15.6113125,96.4654881 15.582625,95.882377 C15.620875,95.9160889 15.659125,95.9492741 15.6979062,95.9824593 C15.7223437,96.0045827 15.7409375,96.0172247 15.7531562,96.0245992 C15.7505,96.0430354 15.7515625,96.0778008 15.7643125,96.1420642 C15.8572812,96.6150848 15.773875,97.1418337 15.671875,97.6311835 M10.078875,90.4616033 C10.070375,90.7607967 10.0422187,91.0394469 9.9949375,91.3070354 C9.9928125,91.2591012 9.989625,91.2116938 9.9864375,91.1637597 C9.996,90.9514798 10.00025,90.7386733 10.0076875,90.5263934 C10.044875,90.4716115 10.0698437,90.4036609 10.0709062,90.3193811 C10.0740937,90.1007802 10.081,89.8658502 10.0836562,89.6235457 C10.0889687,89.9032494 10.0868437,90.1834798 10.078875,90.4616033 M4.58096875,84.8885992 C4.5698125,84.9244181 4.55759375,84.9618173 4.54696875,84.998163 C4.456125,84.5678091 4.3870625,84.1332412 4.33128125,83.6965663 C4.4061875,83.7776856 4.51403125,83.829307 4.6186875,83.8240395 C4.6378125,84.1817021 4.62453125,84.5372576 4.58096875,84.8885992 M4.2106875,82.6309531 C4.28825,82.7136527 4.3891875,82.7721218 4.49703125,82.794772 C4.505,82.8390189 4.5103125,82.8837926 4.51721875,82.9280395 C4.43275,83.0391835 4.35253125,83.1540148 4.28028125,83.2751671 C4.25478125,83.0602535 4.23246875,82.8463934 4.2106875,82.6309531 M0.01753125,44.5022288 C0.085,47.3040066 0.3368125,50.1173728 0.7905,52.8843852 C0.88240625,53.4379984 0.9828125,53.9921383 1.0911875,54.5431177 C1.13846875,54.9666239 1.192125,55.3906568 1.255875,55.8152165 C1.48696875,57.3643852 1.75471875,58.9067062 2.080375,60.4405992 C2.7274375,63.4946897 3.69696875,66.4692412 4.59425,69.4559078 C5.21528125,71.516023 5.84746875,73.572451 6.5163125,75.6178173 C6.058375,75.255414 5.44425,75.1526979 5.0521875,75.7458173 C4.78815625,76.1461465 4.72971875,76.6692082 4.74034375,77.164879 C4.32915625,78.0772082 4.50340625,79.0158749 4.5783125,80.0130107 C4.5868125,80.1315292 4.6038125,80.3090436 4.61496875,80.5060477 C4.426375,80.4997267 4.23725,80.5787391 4.120375,80.7183276 C4.11771875,80.1847309 4.12834375,79.6506074 4.13578125,79.1191177 C4.15225,78.0919572 4.2574375,77.068484 4.60753125,76.0955786 C4.74034375,75.7279078 4.18784375,75.52827 3.992875,75.8385251 C3.73946875,76.2435951 3.4818125,76.6813235 3.37184375,77.1496033 C3.25815625,77.6342123 3.23053125,78.1377844 3.22415625,78.6334551 C3.2119375,79.8223276 3.24434375,81.0206815 3.35696875,82.2027062 C3.4541875,83.2325004 3.5816875,84.3081218 3.8473125,85.3089449 C4.131,86.3803523 4.53209375,87.4127802 4.57884375,88.5300148 C4.59425,88.9198091 5.187125,88.9229695 5.19084375,88.5300148 C5.19828125,87.7662288 5.05909375,87.0340477 4.87475,86.3039737 C5.0288125,86.3102947 5.18765625,86.2455045 5.29390625,86.0832658 C5.61371875,85.5912823 5.8936875,84.8496198 6.18959375,84.2533399 C6.61140625,83.4010601 6.9838125,82.5155951 7.28609375,81.6138008 C7.5554375,80.8126156 7.7360625,79.9782453 7.61440625,79.1354469 C7.58784375,78.9595128 7.5320625,78.7888461 7.44971875,78.6339819 C7.45290625,78.55813 7.45503125,78.4822782 7.45609375,78.4058996 C7.46778125,78.436451 7.4768125,78.4675292 7.48796875,78.4980807 C8.28484375,80.7778502 9.24534375,82.9986239 10.3205937,85.1630354 C10.0496562,84.9407473 9.69478125,84.8380313 9.22515625,84.9360066 C9.0535625,84.9712988 8.88834375,85.1172082 8.81290625,85.2815539 C8.6413125,85.1714634 8.4351875,85.124056 8.211,85.130377 C8.12015625,84.8380313 7.6276875,84.8485663 7.5639375,85.1614551 C7.52728125,85.34213 7.49646875,85.5249119 7.46990625,85.7050601 C7.39765625,85.9194469 7.37109375,86.1570107 7.36153125,86.3498008 C7.35196875,86.525735 7.3514375,86.7069366 7.3556875,86.8891918 C7.33071875,87.3443029 7.32328125,87.7999407 7.320625,88.2629531 C7.31425,89.3775539 7.37321875,90.4858337 7.55596875,91.5862123 C7.71534375,92.5412082 8.04896875,93.4840889 8.41340625,94.3806156 C8.585,94.8051753 8.786875,95.212879 9.04453125,95.5910848 C9.25596875,95.9029202 9.5795,96.1789366 9.62146875,96.5808461 C9.67140625,97.0475457 10.4008125,97.0654551 10.3710625,96.5808461 C10.3280312,95.8223276 9.7696875,95.2855704 9.4424375,94.6397761 C9.2469375,94.2536691 9.08065625,93.8327967 8.9388125,93.4024428 C9.13590625,93.4609119 9.38240625,93.3782123 9.48121875,93.185949 C9.598625,93.311842 9.823875,93.3408132 9.94871875,93.1490765 C10.0693125,92.9652412 10.1845937,92.7735045 10.2945625,92.5775539 C10.5963125,92.5138173 10.8497187,92.2783605 11.0834687,92.0945251 C11.4627812,91.7974387 11.608875,91.2264428 11.6875,90.7133893 C11.9345312,90.3831177 12.0880625,90.0244016 12.1310937,89.576665 C12.186875,88.9993481 11.9472812,88.3683029 11.6816562,87.8399737 C11.6736875,87.8025745 11.6667812,87.7657021 11.6572187,87.7283029 C12.3775937,89.0578173 13.1372812,90.3836444 13.9585937,91.6646979 C13.878375,91.8216691 13.9256562,92.0571259 14.129125,92.0903111 C14.167375,92.0961053 14.2050937,92.0982123 14.2422812,92.1024263 C14.7910625,92.9367967 15.3669375,93.7495704 15.9746875,94.5302123 C15.8254062,94.4274963 15.667625,94.3390025 15.49975,94.2721053 C15.351,93.6968955 14.4616875,93.6594963 14.1806562,94.1693893 C14.1769375,94.1267226 14.1721562,94.084056 14.1657812,94.041916 C14.1222187,93.7253399 13.79125,93.5910189 13.4995937,93.6363193 C13.351375,93.5330765 13.1266562,93.5351835 13.0145625,93.7285004 C12.0025312,95.4888955 12.21025,97.6338173 12.7595625,99.5122041 C13.03475,100.449291 13.4990625,101.253109 13.9899375,102.08906 C14.583875,103.098311 15.3961562,104.255052 16.428375,104.866607 C16.649375,105.045702 17.0398437,104.779167 16.870375,104.482607 C16.3401875,103.548681 15.616625,102.731167 15.068375,101.799875 C15.3706562,101.818311 15.6835625,101.572319 15.5619062,101.227299 C15.5576562,101.214657 15.5534062,101.201488 15.548625,101.186739 C16.024625,100.754805 16.122375,99.7576691 16.2945,99.2483029 C16.5372812,98.5256033 16.8082187,97.8139654 16.9351875,97.0591342 C17.0058437,96.6308872 17.0584375,96.1636609 16.9612187,95.7454222 C17.6045625,96.5165827 18.2691562,97.2708872 18.95075,98.0093893 C18.8476875,98.0262453 18.751,98.0757597 18.6941562,98.154772 C18.5671875,98.0025416 18.311125,97.9598749 18.1676875,98.1221136 C17.4956562,98.8827391 17.5981875,100.220681 17.7145312,101.153027 C17.860625,102.320303 18.258,103.433323 18.7414375,104.49999 C19.1733437,105.452879 19.6674062,106.394179 20.2836562,107.240665 C20.60825,107.687348 20.927,108.132978 21.2016562,108.611266 C21.328625,108.82934 21.4577187,108.949439 21.6633125,109.095348 C21.7993125,109.191743 22.1775625,109.34292 22.2322812,109.510426 C22.369875,109.934459 23.0509375,109.875463 23.0355312,109.401916 C23.0227812,108.998953 22.7576875,108.747694 22.4670937,108.498015 C22.0612187,108.148253 21.864125,107.673653 21.57725,107.226443 C21.5161562,107.128994 21.4513437,107.033126 21.3875937,106.936204 C21.4853437,106.880369 21.5719375,106.803463 21.6372812,106.71813 C22.12125,106.092352 21.7839062,104.922443 21.7360937,104.208698 C21.7185625,103.936895 21.7185625,103.67036 21.7015625,103.401719 C21.7275937,102.818081 21.7626562,102.233916 21.7674375,101.648698 C21.7695625,101.396385 21.6463125,101.221505 21.47525,101.125109 C21.4640937,100.940747 21.4444375,100.758492 21.4130937,100.579924 C21.6994375,100.870163 21.9889687,101.159348 22.2769062,101.446953 C23.4775312,102.64636 24.735,103.762015 26.0381562,104.827101 C25.9818437,104.846591 25.9260625,104.871348 25.8729375,104.909274 C25.7135625,105.023052 25.587125,105.143151 25.4835312,105.26957 C25.446875,105.125768 25.4080937,104.983546 25.3698437,104.837636 C25.2816562,104.509998 24.7822812,104.504204 24.6972812,104.837636 C24.2563437,106.553258 24.749875,108.419529 25.289625,110.070887 C25.5525937,110.871546 25.9903437,111.646393 26.3547812,112.409653 C26.5258437,112.765735 26.7000937,113.11971 26.8849687,113.468945 C26.9954687,113.681751 27.08525,113.844517 27.26375,114.003595 C27.4390625,114.161093 27.6505,114.328599 27.7285937,114.556681 C27.846,114.901702 28.3437812,114.835332 28.3629062,114.470821 C28.3815,114.143184 28.2455,113.880336 28.0484062,113.623809 C27.7764062,113.267727 27.6117187,112.901109 27.4433125,112.486558 C27.3795625,112.330114 27.316875,112.172616 27.253125,112.015644 C27.4305625,112.091496 27.6473125,112.07464 27.8444062,111.892385 C28.78525,111.025356 28.8861875,109.434048 28.5440625,108.263085 C28.4835,108.056599 28.383625,107.841159 28.2550625,107.6352 C28.2486875,107.172714 28.2173437,106.768698 28.1679375,106.497422 C28.526,106.767644 28.8877812,107.036813 29.2522187,107.302821 C29.8291562,107.726328 30.4103437,108.14562 30.993125,108.562805 C30.8863437,108.570706 30.78275,108.607579 30.695625,108.679216 C30.6924375,108.675529 30.6903125,108.670788 30.687125,108.666574 C30.57025,108.48748 30.321625,108.48748 30.2036875,108.666574 C29.9938437,108.986311 30.0129687,109.367151 30.03475,109.738509 C30.0060625,109.759579 29.9789687,109.783282 29.9529375,109.80804 C29.8482812,109.912336 29.8482812,110.085109 29.9529375,110.188352 C29.9869375,110.223118 30.0230625,110.251562 30.0607812,110.2779 C30.0783125,110.680336 30.1011562,111.084352 30.134625,111.486262 C30.209,112.37278 30.3646562,113.264566 30.6132812,114.11948 C30.6988125,114.415513 30.8093125,114.696797 30.9394687,114.967019 C30.9485,115.001784 30.9559375,115.03813 30.9649687,115.072895 C31.1254062,115.677603 31.4579687,116.139035 31.7947812,116.655776 C32.0141875,116.992895 32.3164687,117.333175 32.7234062,117.357933 C33.0065625,117.649225 33.29875,117.931562 33.5893437,118.212319 C33.8039687,118.419858 34.1275,118.099595 33.9181875,117.886262 C33.3800312,117.337389 32.8392187,116.785356 32.3727812,116.186443 C32.3345312,116.077933 32.2994687,115.975743 32.2654687,115.891463 C32.1926875,115.717636 32.119375,115.554344 32.000375,115.405801 C31.9584062,115.352599 31.92175,115.198262 31.889875,115.029175 C31.9477812,115.043398 32.0157812,115.03813 32.0869687,115.001258 C32.1029062,114.992303 32.1177812,114.984402 32.1347812,114.974393 C32.1655937,115.136632 32.2054375,115.296764 32.2628125,115.444253 C32.385,115.758723 32.7595312,115.680764 32.829125,115.439513 C32.8317812,115.44162 32.8355,115.443727 32.8386875,115.444253 C32.909875,115.243562 32.92475,115.024435 32.9199687,114.8032 C33.4846875,114.516122 33.8523125,113.386245 33.942625,112.973274 C34.1089062,112.200007 34.0972187,111.332451 33.8060937,110.590262 C34.3941875,111.020089 34.9806875,111.449389 35.5778125,111.863414 C34.7230312,112.422821 34.0499375,113.163957 34.1928437,114.217455 C34.2156875,114.381801 34.486625,114.372319 34.5169062,114.217455 C34.64175,113.603266 35.0842812,113.120764 35.63625,112.725175 C35.5485937,113.059661 35.6686562,113.388352 35.8960312,113.641192 C35.7632187,113.792369 35.787125,114.091035 35.9842187,114.173208 C36.1005625,114.222723 36.224875,114.258542 36.352375,114.283826 C36.1085312,114.475035 35.9449062,114.707332 35.836,114.963332 C35.7541875,114.962805 35.6734375,114.973867 35.5974687,114.994937 C35.5735625,114.895908 35.5485937,114.796352 35.519375,114.696797 C35.4423437,114.44343 35.068875,114.43869 34.9955625,114.696797 C34.5902187,116.120072 35.2117812,117.796714 35.84025,119.074081 C36.1807812,119.766756 36.6174687,120.41097 37.08975,121.021472 C37.3250937,121.325933 37.5715937,121.620385 37.825,121.910624 C37.9620625,122.068122 38.103375,122.220352 38.2452187,122.374163 C38.3381875,122.472665 38.6213437,122.671249 38.61975,122.820319 C38.6155,123.29492 39.2179375,123.535644 39.5531562,123.203793 C39.8905,122.869834 39.6445312,122.276714 39.1669375,122.277768 C38.9586875,122.277768 38.56025,121.678328 38.4285,121.530311 C38.1793437,121.247974 37.9424062,120.957735 37.7176875,120.657488 C37.37025,120.192369 37.0610625,119.700912 36.785875,119.191546 C36.8267812,119.164155 36.8676875,119.133077 36.9038125,119.089883 C36.904875,119.139924 36.904875,119.191546 36.9059375,119.242114 C36.9123125,119.520764 37.1125937,119.665093 37.3229687,119.677735 C37.3357187,119.758328 37.3495312,119.83892 37.363875,119.92004 C37.4175312,120.215019 37.9089375,120.215019 37.9620625,119.92004 C38.069375,119.323233 38.1230312,118.714838 38.1580937,118.101702 C38.1708437,118.04376 38.1793437,117.98371 38.1830625,117.921554 C38.2245,117.267332 38.2574375,116.617323 38.2574375,115.961521 C38.2685937,115.786114 38.2085625,115.651266 38.111875,115.555924 C38.0300625,115.110821 37.8552812,114.687842 37.5259062,114.308056 C37.5136875,114.294887 37.5004062,114.281192 37.4855312,114.268023 C37.9153125,114.193225 38.3482812,114.053636 38.7414062,113.898772 C39.5048125,114.379167 40.26875,114.856928 41.0310937,115.33469 C40.4483125,115.833521 39.9887812,116.38134 39.548375,117.027661 C39.4075937,117.234147 39.6875625,117.51227 39.8958125,117.372681 C40.0095,117.295776 40.1210625,117.219398 40.2305,117.141439 C40.3691562,117.134064 40.517375,117.151447 40.6528437,117.12669 C40.865875,117.423776 41.1708125,117.670821 41.4582187,117.819365 C41.4645937,117.821472 41.4715,117.825159 41.4773437,117.828319 C41.44175,117.935249 41.4258125,118.052714 41.4364375,118.17492 C41.3923437,118.330838 41.3997812,118.503085 41.4784062,118.674805 C41.25475,118.522048 40.8919062,118.60264 40.9099687,118.9445 C40.9917812,120.486821 41.9618437,121.731529 42.8708125,122.921982 C43.500875,123.746344 44.3344062,124.974723 45.4819062,125.010015 C45.5955937,125.014229 45.6827187,124.979463 45.7464687,124.924155 C45.9010625,124.985784 46.0503437,125.051628 46.2091875,125.149603 C46.5231562,125.343447 46.8785625,125.46934 47.1925312,125.661603 C47.342875,125.754311 47.559625,125.563101 47.4459375,125.410344 C47.0979687,124.944171 46.5640625,124.423216 46.03175,124.176171 C45.543,123.948616 45.22425,123.627826 44.9336562,123.212221 C44.9357812,123.209587 44.9379062,123.206426 44.9389687,123.203266 C45.1929062,122.639644 45.2125625,122.042838 45.1068437,121.455513 C45.1323437,121.266937 45.1387187,121.086788 45.1376562,120.946673 C45.1318125,120.077537 44.9145312,118.966097 44.214875,118.374558 C43.9869687,118.181768 43.6868125,118.050607 43.384,118.035858 C43.3505312,118.000566 43.3133437,117.967908 43.2772187,117.933669 C43.3250312,117.919974 43.373375,117.906805 43.420125,117.892056 C43.7654375,117.783546 44.0884375,117.625521 44.393375,117.432731 L45.209375,117.93999 C45.5817812,118.172286 45.9765,118.377192 46.3791875,118.566295 C46.1778437,118.684286 45.9834062,118.81492 45.8027812,118.964517 C45.5398125,119.181537 45.7517812,119.656138 46.0832812,119.634015 C46.2235312,119.62506 46.3621875,119.610311 46.5003125,119.588714 C46.5359062,119.711974 46.6719062,119.763068 46.7850625,119.698805 C46.786125,119.740945 46.7893125,119.782558 46.7940937,119.824171 C46.5571562,119.714081 46.3244687,119.993258 46.3685625,120.221867 C46.5019062,120.899793 46.9338125,121.458147 47.3444687,121.997011 C47.804,122.601719 48.3039062,123.172188 48.8234687,123.727381 C49.8328437,124.80669 50.9452812,125.771167 52.0991562,126.694031 C52.3658437,126.908945 52.8349375,126.796747 52.821125,126.397472 C52.8275,126.605537 52.8094375,126.489126 52.8710625,126.373768 C53.0601875,126.013998 52.8275,125.557307 52.3977187,125.557307 C52.3116562,125.557307 52.2340937,125.576797 52.1660937,125.608928 C51.6433437,125.120105 51.13175,124.621801 50.63025,124.110854 C50.6467187,124.098212 50.66425,124.085044 50.6796562,124.070295 C50.8926875,124.181439 51.2077187,124.107694 51.30175,123.825883 C51.65025,122.777126 51.0366562,121.67306 50.4278437,120.847644 C50.2047187,120.544237 49.956625,120.249258 49.6894062,119.974295 C50.3104375,120.215019 50.9373125,120.444155 51.5684375,120.660122 C51.5594062,120.680138 51.5514375,120.700681 51.5450625,120.721751 C51.5052187,120.751776 51.4690937,120.786015 51.4393437,120.823941 C50.9500625,121.45604 51.4690937,122.505323 51.8611562,123.05999 C52.343,123.741603 53.0214062,124.25413 53.6945,124.733472 C54.4961562,125.304467 55.2239687,125.934459 56.0745,126.444879 C56.4644375,126.679282 56.8639375,126.89683 57.2533437,127.13334 C57.7176562,127.417258 58.2775937,127.546311 58.7095,127.892912 C59.1329062,128.231612 59.710375,127.695381 59.319375,127.288204 C59.0760625,127.036945 58.7907812,126.829406 58.4900937,126.639249 C58.3041562,125.504105 57.3038125,124.807743 56.6185,123.922805 C56.1770312,123.350756 55.7807187,122.787661 55.4332812,122.152928 C55.3679375,122.033883 55.2999375,121.912731 55.2298125,121.792105 C55.6054062,121.944336 55.998,122.041784 56.3980312,122.109735 C56.7932812,122.178212 57.1927812,122.210871 57.593875,122.225093 C57.4934687,122.476352 57.4424687,122.758163 57.4275937,122.97413 C57.4015625,123.350756 57.4052812,123.711579 57.7187187,123.974426 C58.0465,124.251496 58.4369687,124.435332 58.8417812,124.570179 C58.911375,124.591776 58.983625,124.608105 59.0553437,124.616533 C59.0744687,124.619167 59.0904062,124.621801 59.1052812,124.624435 C59.285375,124.729258 59.4755625,124.816171 59.6652187,124.898871 C60.0641875,125.074805 60.475375,125.2165 60.896125,125.326064 C61.6265937,125.519908 62.42825,125.563101 63.1284375,125.254953 C63.1534062,125.242838 63.1746562,125.227035 63.195375,125.209653 C63.2139687,125.210706 63.2325625,125.212286 63.2516875,125.212286 C64.7471562,125.265488 66.2420937,125.159612 67.7349062,125.094821 C67.97875,125.084286 67.9798125,124.728204 67.7349062,124.719249 C67.4570625,124.708714 67.17975,124.70134 66.901375,124.697653 C66.96725,124.647085 66.9545,124.520665 66.863125,124.501702 C66.15125,124.352105 65.4303437,124.297323 64.7057187,124.235167 C64.419375,124.209883 64.1468437,124.179332 63.8801562,124.137719 C63.671375,123.318097 62.6673125,123.091068 61.9124062,122.939891 C61.8789375,122.933044 61.8428125,122.927776 61.8088125,122.921982 C61.6265937,122.715496 61.3939062,122.538509 61.1888437,122.375743 C60.7378125,122.015974 60.2772187,121.658311 59.7502187,121.413373 C59.25775,121.18213 58.6616875,121.05571 58.1538125,121.325933 C58.0289687,121.39283 57.9290937,121.48027 57.8515312,121.580879 C57.6145937,121.56613 57.3776562,121.54664 57.1401875,121.519249 C56.5813125,121.455513 56.089375,121.26957 55.5825625,121.094163 C56.37625,120.849751 57.0929062,120.3899 57.8940312,120.163398 C57.9514062,120.420978 58.3020312,120.412023 58.3360312,120.136007 C58.3455937,120.060155 58.3556875,119.98483 58.3705625,119.908451 C58.4061562,119.723035 58.2924687,119.595562 58.1118437,119.572912 C57.8037187,119.532352 57.50675,119.543414 57.2124375,119.587134 C57.14975,119.49706 57.0466875,119.439118 56.9085625,119.452813 L56.9069687,119.452813 C56.4554062,119.398558 56.0261562,119.494953 55.5979687,119.615579 C55.4869375,119.624007 55.3658125,119.637702 55.2446875,119.658245 C55.1729687,119.60241 55.0725625,119.580813 54.9875625,119.639282 C54.818625,119.752533 54.6900625,119.833653 54.5455625,119.877373 C54.4324062,119.894756 54.3187187,119.906344 54.2029062,119.909505 C54.0143125,119.895282 53.87725,119.973241 53.7927812,120.090706 C53.6727187,120.025389 53.5441562,119.974295 53.4113437,119.937422 C53.8655625,119.828385 54.3229687,119.636649 54.6990937,119.526558 C55.4938437,119.292155 56.2482187,119.21999 57.04775,119.231052 L57.088125,119.231052 C57.0844062,119.289521 57.1125625,119.350624 57.1763125,119.360632 C57.4265312,119.403299 57.5444687,119.39013 57.6629375,119.253175 C58.2180937,119.322179 58.7828125,119.571332 59.2965312,119.740945 C59.8809062,119.935315 60.4865312,120.11283 61.0910937,120.235035 C61.2223125,120.2619 61.2738437,120.078591 61.1463437,120.036451 C59.9722812,119.662986 58.9065937,118.899727 57.6804687,118.694295 C57.6751562,118.690607 57.6693125,118.685867 57.6650625,118.681653 C56.8209062,118.172286 55.8311875,118.210739 54.8924687,118.379299 C54.4015937,118.466212 53.9107187,118.593686 53.4304687,118.728007 C52.965625,118.85706 52.4545625,118.886558 52.1193437,119.261603 C51.9551875,119.443858 51.962625,119.75306 52.1985,119.87948 C52.2245312,119.893702 52.2510937,119.902657 52.277125,119.914245 C52.226125,119.928994 52.1777812,119.955858 52.132625,119.985883 C51.652375,119.81469 51.1731875,119.633488 50.6987812,119.444912 C50.6504375,119.425949 50.6015625,119.405406 50.5542812,119.386443 C50.7365,119.235266 50.8969375,119.058805 51.0334687,118.862854 C51.3686875,118.692714 51.7171875,118.555233 52.0970312,118.506772 C52.6745,118.4325 52.7053125,117.630262 52.0970312,117.591282 C51.894625,117.580221 51.6996562,117.595496 51.5084062,117.630788 C51.5158437,117.570739 51.520625,117.51227 51.5232812,117.452747 C51.5328437,117.269439 51.4393437,117.094031 51.2985625,116.976566 C51.478125,116.971826 51.6598125,116.974459 51.843625,116.976566 C52.7355937,116.988681 53.6132187,117.017126 54.5030625,117.00185 C54.6927187,116.999216 54.691125,116.718986 54.5030625,116.711612 C52.7111562,116.636286 51.0610937,115.712895 49.2930937,116.484583 C48.5806875,116.796418 47.9261875,117.226772 47.3859062,117.783546 C47.3365,117.833587 47.2870937,117.887842 47.236625,117.945258 C46.9927812,117.830426 46.7510625,117.714542 46.5082812,117.595496 C46.0503437,117.371101 45.6025,117.116681 45.1610312,116.847513 C45.72575,116.347101 46.225125,115.752928 46.6867812,115.185093 C46.8939687,115.185093 47.100625,115.045505 47.1192187,114.768961 C47.1213437,114.745258 47.1224062,114.721554 47.124,114.697323 C47.3503125,114.706278 47.5755625,114.724714 47.7992187,114.775809 C48.2327187,114.871677 48.6444375,114.990196 49.0906875,115.012846 C49.7935312,115.050245 49.7961875,113.9525 49.0906875,113.927743 C48.6359375,113.914048 48.2035,113.761817 47.755125,113.689653 C47.2977187,113.614854 46.8227812,113.6512 46.3595312,113.655941 C45.4325,113.663842 44.4518125,113.565867 43.556125,113.839776 C42.9457187,114.026245 42.3900312,114.339134 41.8672812,114.699957 C41.1819687,114.262229 40.496125,113.826081 39.8086875,113.39362 C40.7017187,112.857389 41.5320625,111.96297 41.5017812,110.893142 C41.499125,110.817291 41.4656562,110.756714 41.4157187,110.717735 C41.6484062,110.743546 41.8805625,110.778311 42.1095312,110.823085 C42.3337187,110.867332 42.602,110.81097 42.8299062,110.804649 C43.2081562,110.792007 43.5571875,110.870492 43.9040937,111.017982 C44.0735625,111.090673 44.2249687,110.850476 44.0523125,110.766723 C43.5609062,110.532846 43.0408125,110.432237 42.502125,110.375875 C41.7663437,110.295282 41.0645625,110.090377 40.3181562,110.060879 C39.8384375,110.041916 39.114875,110.040336 38.6829687,110.284747 C38.290375,110.507035 37.8813125,110.696665 37.4733125,110.886295 C37.1880312,111.017982 36.8676875,111.162838 36.5399062,111.324023 L36.114375,111.055381 C35.4540312,110.637669 34.8446875,110.098805 34.214625,109.635793 C34.0823437,109.538871 33.9505937,109.445109 33.8183125,109.348188 C34.0377187,109.366624 34.2704062,109.351348 34.4961875,109.34292 C35.1469687,109.317636 35.7207187,109.23599 36.3029687,108.91362 C36.6195937,108.736632 36.9489687,108.330509 37.3155312,108.277307 C37.6921875,108.224105 37.9572812,107.893307 38.3105625,107.777422 C38.4635625,107.727908 38.485875,107.488237 38.3105625,107.448731 C38.1209062,107.406064 37.9015,107.361291 37.7097187,107.415019 C37.5901875,107.448731 37.4685312,107.459266 37.3474062,107.468747 C37.38725,107.315463 37.3686562,107.14427 37.2857812,107.011529 C37.138625,106.776072 36.9394062,106.618574 36.7104375,106.512698 C37.0849687,106.531134 37.457375,106.571694 37.8133125,106.639644 C38.6229375,106.795035 39.2105,107.490344 39.9207812,107.864336 C40.2544062,108.038163 40.54925,107.542492 40.2166875,107.362344 C39.5064062,106.979398 38.9395625,106.316747 38.1724375,106.047579 C37.29375,105.742064 36.3066875,105.711513 35.3860312,105.712566 C34.5960625,105.71362 33.8725,105.902723 33.1824062,106.186114 C33.1569062,106.192961 33.133,106.199809 33.1069687,106.20771 C32.5364062,106.37943 31.9823125,106.575908 31.6295625,106.960435 C31.4229062,107.076846 31.21625,107.196418 31.0095937,107.313883 C29.8110937,106.444747 28.6200312,105.56455 27.4544687,104.65064 C27.5670937,104.654854 27.676,104.657488 27.7753437,104.661175 C28.366625,104.681192 28.9536562,104.637472 29.5433437,104.627463 C29.888125,104.620616 30.2775312,104.398854 30.5962812,104.280863 C31.014375,104.128105 31.4314062,103.974821 31.8484375,103.821011 C32.2091562,103.687743 32.4986875,103.603463 32.7675,103.3285 C33.0028437,103.088303 33.2381875,103.009291 33.5654375,102.947134 C33.7221562,102.91869 33.8114062,102.831776 33.8501875,102.724319 C34.286875,102.969258 34.6900937,103.273192 35.0449687,103.649817 C35.3095312,103.933735 35.7324062,103.510756 35.4705,103.227891 C34.0414375,101.677669 32.1326562,100.997109 30.0395312,101.02292 C28.9919062,101.037142 27.9575625,101.241521 26.9625312,101.556517 C26.3361875,101.755628 25.4644062,102.020583 24.8810937,102.486229 C23.3845625,101.125636 21.9698437,99.6733893 20.5822187,98.2027062 C20.7283125,98.1178996 20.8744062,98.0294058 21.0210312,97.9398584 C21.090625,97.9967473 21.1602187,98.0557432 21.2282187,98.1152658 C21.290375,98.2580148 21.383875,98.3965498 21.505,98.5256033 C21.5289062,98.5508872 21.553875,98.5735374 21.5788437,98.5972412 C21.7100625,99.6470519 23.4552187,99.705521 24.2797187,99.5785745 C25.0160312,99.4653235 25.8426562,99.204056 26.4440312,98.7131259 C26.58375,98.6430683 26.71975,98.5677432 26.8483125,98.4871506 C27.074625,98.3486156 27.2844687,98.188484 27.4475625,97.9835786 C27.9320625,97.9161547 28.4309062,97.8961383 28.9132812,97.8571588 C29.288875,97.9604016 29.667125,98.0536362 30.049625,98.1152658 C30.4974687,98.1879572 30.695625,97.518986 30.240875,97.4315457 C29.9938437,97.384665 29.75,97.3277761 29.509875,97.2645663 C29.4535625,97.1924016 29.365375,97.1392 29.2426562,97.1255045 C29.1162187,97.1112823 28.9903125,97.0970601 28.8649375,97.0828379 C27.5086562,96.6740807 26.2007187,96.1589202 24.7381875,96.1389037 C23.6215,96.1231012 22.3417187,96.1989531 21.3195937,96.7051588 C20.7044062,96.3422288 19.9564062,96.1541794 19.3789375,96.6403687 C19.3295312,96.6825086 19.29925,96.7420313 19.2865,96.8052412 C18.5305312,95.9687638 17.7952812,95.11227 17.0897812,94.2304922 C16.4947812,93.4867226 15.9518437,92.7060807 15.4322812,91.9096362 C15.4981562,91.8843523 15.5640312,91.8574881 15.629375,91.8295704 C15.6426562,91.9180642 15.6644375,92.004451 15.693125,92.0829366 C15.782375,92.3257679 15.93325,92.5454222 16.1260937,92.7387391 C16.1409687,92.9594469 16.3019375,93.1722535 16.6127187,93.2085992 C16.6679687,93.2143934 16.7232187,93.2191342 16.7784687,93.2254551 C17.3150312,93.5230683 17.945625,93.6842535 18.4710312,93.6710848 C19.3449375,93.6489613 20.2331875,93.5889119 21.086375,93.3876938 C21.39875,93.3876938 21.7116562,93.3876938 22.0261562,93.3882206 C22.51225,93.3898008 22.7316562,92.9863111 22.6859687,92.6175868 C22.6870312,92.6165333 22.6875625,92.6160066 22.6880937,92.6160066 C22.7486562,92.657093 22.8092187,92.6971259 22.86925,92.7361053 C23.3638437,93.0500477 24.5915625,92.8878091 24.7084375,93.687414 C24.7636875,94.062986 25.3836562,93.9686979 25.3687812,93.5989202 C25.336375,92.7882535 24.4316562,92.2662453 23.7458125,92.0328955 C23.6778125,92.010772 23.60875,91.9933893 23.538625,91.9786403 L23.4424687,91.9628379 C23.313375,91.9775868 23.2825625,91.9623111 23.351625,91.9180642 C23.1077812,91.737916 22.8793437,91.5366979 22.6402812,91.3512823 C22.1541875,90.97413 21.660125,90.6164675 21.10125,90.350986 C20.5131562,90.0697021 19.9595937,90.0602206 19.3236875,89.9949037 C18.7,89.9311671 18.0885312,89.8700642 17.4627187,89.9301136 C16.8119375,89.9933235 16.2440312,90.2319407 15.6585937,90.5100642 C15.3796875,90.6417514 15.0928125,90.7850272 14.8213437,90.9498996 C14.6954375,90.7481547 14.5700625,90.5469366 14.4446875,90.344665 C13.419375,88.6769778 12.4615312,86.9671506 11.5839062,85.2188708 C11.702375,85.3352823 11.82775,85.4522206 11.9350625,85.5912823 C12.7218437,86.6126486 13.7838125,87.1346568 15.068375,87.1436115 C15.9768125,87.1494058 18.411,87.2563358 19.0028125,86.2323358 C19.27375,86.4709531 19.5415,86.7011424 19.8586562,86.8923523 C20.0275937,86.9940148 20.3176562,87.1694222 20.5221875,87.1609942 C20.7113125,87.1541465 20.776125,87.2400066 20.9370937,87.3558914 C21.2303437,87.5697514 21.66225,87.1451918 21.443375,86.8544263 C21.3360625,86.7111506 21.2255625,86.5346897 21.0624687,86.4456691 C20.907875,86.3624428 20.723,86.3698173 20.587,86.284484 C20.1566875,86.0105745 19.8320937,85.6392165 19.4724375,85.2878749 C18.668125,84.5019654 17.6645937,83.8235128 16.6334375,83.3705086 C15.5629687,82.9001218 14.3193125,82.5930272 13.1484375,82.5424593 C12.259125,82.5061136 11.2784375,83.0560395 10.9421562,83.9025251 C10.6903437,83.3705086 10.4438437,82.8353317 10.2079687,82.295414 C9.50459375,80.6846156 8.9026875,79.0327309 8.3501875,77.3655704 C8.4840625,77.4972576 8.619,77.6278914 8.75659375,77.7569449 C9.05303125,78.0361218 9.37125,78.1678091 9.7484375,78.3174058 C10.41675,78.5807802 11.1429687,78.726163 11.8633437,78.7151012 C12.1374687,78.7108872 12.5348437,78.6339819 12.9035312,78.4912329 C13.3885625,78.5333728 13.8725312,78.6076444 14.3400312,78.7361712 C14.6848125,78.8315128 15.0657187,78.9173728 15.4407812,79.0279901 C15.4540625,79.0622288 15.4673437,79.0980477 15.4800937,79.1343934 C15.5348125,79.3087473 15.691,79.3977679 15.7531562,79.5626403 C15.8275312,79.7554305 15.8084062,79.9782453 15.8126562,80.1810436 C15.8243437,80.8199901 16.80025,80.8210436 16.8119375,80.1810436 C16.8140625,80.0198584 16.8209687,79.8476115 16.81725,79.6758914 C16.9282812,79.7643852 17.0308125,79.8623605 17.12325,79.9740313 C17.21675,80.0872823 17.4032187,79.9392658 17.325125,79.8186403 C17.1668125,79.5684346 16.97025,79.364056 16.751375,79.1891753 C16.7295937,79.1127967 16.7030312,79.0369449 16.6653125,78.9663605 C16.5569375,78.7646156 16.5155,78.732484 16.4714062,78.5992165 C16.388,78.3453235 16.2546562,78.1098667 16.1069687,77.8875786 C15.89925,77.5752165 15.6426562,77.2981465 15.3595,77.0458337 C15.2925625,76.6602535 15.1480625,76.3089119 14.8925312,75.9338667 C14.4893125,75.3439078 14.0621875,74.7439407 13.5357187,74.2582782 C13.0246562,73.7868379 12.4445312,73.4428708 11.7820625,73.2305909 C11.4840312,73.1341959 11.1705937,73.0946897 10.860875,73.0546568 C10.4815625,73.0046156 10.2281562,73.1257679 9.9205625,73.2779984 C9.1258125,73.0425416 8.2949375,73.0546568 7.443875,73.1742288 C6.71234375,70.8986733 5.67853125,68.7142453 5.21528125,66.3628379 C4.61071875,63.2876774 3.657125,60.2720395 2.9675625,57.2089942 C2.7508125,56.2434634 2.5574375,55.2742453 2.3853125,54.3023934 C2.36671875,54.1965169 2.34971875,54.0916938 2.331125,53.986344 C2.32421875,53.9484181 2.3173125,53.9099654 2.31040625,53.8720395 C1.55125,49.4052082 1.2739375,44.8814881 1.5076875,40.3414387 C2.0601875,29.6184099 5.35234375,19.1471671 10.8242187,9.89903539 C12.6506562,6.81017942 14.7018125,3.84563621 16.9707812,1.0617679 C17.384625,0.555035391 16.7040937,-0.163976955 16.2344687,0.331167078 C8.84690625,8.10756214 4.086375,18.1584593 1.68353125,28.5111835 C0.469625,33.7460148 -0.1115625,39.1314963 0.01753125,44.5022288" id="Fill-4" fill="#858585" mask="url(#mask-6)"></path>
                                </g>
                            </g>
                            <g id="Group-2" stroke-width="1" fill="none" transform="translate(52.000000, 64.000000)">
                                <path d="M31.5,0 C35.6805808,-7.67960236e-16 39.2304533,2.70038338 40.5004979,6.45203062 C41.7692612,2.70060055 45.3192511,7.67991117e-16 49.5,0 L71.5,0 C76.7467051,-9.63804095e-16 81,4.25329488 81,9.5 C81,13.8811797 78.0342515,17.5696717 74.0008388,18.667392 L74,61 C74,64.3137085 71.3137085,67 68,67 L12,67 C8.6862915,67 6,64.3137085 6,61 L5.99990704,18.3344519 C2.48533626,16.9408505 4.91164919e-16,13.5106659 0,9.5 C-6.42536064e-16,4.25329488 4.25329488,9.63804095e-16 9.5,0 L31.5,0 Z" id="Combined-Shape-Copy" fill="#858585"></path>
                                <path d="M43.5,0 C47.6805808,-7.67960236e-16 51.2304533,2.70038338 52.5004979,6.45203062 C53.7692612,2.70060055 57.3192511,7.67991117e-16 61.5,0 L78.5,0 C83.7467051,-9.63804095e-16 88,4.25329488 88,9.5 C88,13.5102858 85.5151348,16.9402003 82.0010922,18.3340556 L82,61 C82,64.3137085 79.3137085,67 76,67 L28,67 C24.6862915,67 22,64.3137085 22,61 L22.0006062,17.8690199 C19.0234198,16.2650437 17,13.1188194 17,9.5 C17,4.25329488 21.2532949,9.63804095e-16 26.5,0 L43.5,0 Z" id="Combined-Shape" fill="#C0B9BA"></path>
                                <circle id="Oval" fill="#767172" cx="32" cy="48" r="1"></circle>
                                <circle id="Oval-Copy-5" fill="#767172" cx="71" cy="48" r="1"></circle>
                                <circle id="Oval-Copy-3" fill="#767172" cx="36" cy="45" r="1"></circle>
                                <circle id="Oval-Copy-6" fill="#767172" cx="75" cy="45" r="1"></circle>
                                <circle id="Oval-Copy-4" fill="#767172" cx="39" cy="49" r="1"></circle>
                                <circle id="Oval-Copy-7" fill="#767172" cx="78" cy="49" r="1"></circle>
                            </g>
                            <circle id="Oval" fill="#767172" cx="97.5" cy="101.5" r="3.5"></circle>
                            <circle id="Oval-Copy-2" fill="#767172" cx="122.5" cy="101.5" r="3.5"></circle>
                            <path d="M105,113.107414 C107.052199,114.440747 109.104397,115.107414 111.156596,115.107414 C113.208795,115.107414 115.260993,114.440747 117.313192,113.107414 L105,113.107414 Z" id="Path-22" fill="#767172"></path>
                        </g>
                    </g>
                </g>
            </g>
        </g>
    </g>
</svg>